<svg xmlns="http://www.w3.org/2000/svg" width="59" height="61"><g fill="#74B44D" fill-rule="evenodd"><path d="M29 44l-.6-1s-4.5-6.2-9.7-11.5C13 25.7 2.2 14.8 7.7 6A11 11 0 0 1 15 .5c6-1.1 12 2.7 13.8 4C30.6 3.1 37-.8 43.1.4A11 11 0 0 1 50.4 6c5.4 8.8-5.3 19.7-11 25.5-5.2 5.3-9.7 11.5-9.7 11.5l-.7 1zM17.2 2h-1.9c-2.6.6-4.7 2.2-6.3 4.8-4.7 7.8 5.4 18 10.8 23.6 4.1 4.1 7.8 8.9 9.2 10.8 1.5-2 5.1-6.7 9.2-10.8 5.5-5.5 15.6-15.8 10.9-23.6a9.5 9.5 0 0 0-6.3-4.7c-6.3-1.3-13.4 4-13.5 4l-.5.3-.5-.3s-5.5-4.2-11-4.2z"/><path d="M29.2 60.5a28.3 28.3 0 0 1-22-10L7 50a29.9 29.9 0 0 1-7-19.4c0-.3.2-.6.6-.8.3 0 .7 0 .9.4 0 0 3.2 4.7 7.2 7.8 1.8 1.4 4 2.3 6.5 3.3 2.4 1 5 2.1 7.5 3.8 2 1.4 3.7 3 4.9 4.8a14.9 14.9 0 0 1 2.5 9 26.7 26.7 0 0 0 18.5-8.3 28 28 0 0 0 8-20c0-.4.4-.8.9-.8.4 0 .8.4.8.8a30.3 30.3 0 0 1-17.8 27.6 28.4 28.4 0 0 1-11.3 2.3M1.8 33.3a28.6 28.6 0 0 0 6.4 15.6l.3.4a27.5 27.5 0 0 0 20 9.5 12.9 12.9 0 0 0-2.3-8c-1-1.6-2.6-3-4.4-4.3C19.4 45 17 44 14.5 43c-2.5-1-4.8-2-6.8-3.5-2.4-2-4.6-4.4-6-6.1"/><path d="M16.4 54.5c-1.2 0-2.5 0-3.7-.3-.5 0-.8-.6-.7-1.1 0-.5.5-.9 1-.8 4.1.8 8.6-.1 11-.8.4 0 .9.2 1 .8 0 .5-.2 1-.6 1.1-1.8.5-4.8 1.1-8 1.1"/><path d="M23.2 53.5a.8.8 0 0 1-.8-.8 11.7 11.7 0 0 0-3.7-7.5 15 15 0 0 0-5.2-3A.8.8 0 0 1 13 41c.2-.5.7-.7 1.1-.5 2.3.8 4.2 2 5.7 3.3a13.3 13.3 0 0 1 4.2 8.8c0 .5-.4.8-.8.8m-11.2-4c-1.4 0-2.8 0-4.3-.2a.8.8 0 0 1-.7-1c0-.4.4-.7.9-.7 3.2.3 6 .3 8.2 0 .4-.1.8.2.9.6 0 .5-.2 1-.7 1-1.3.2-2.7.3-4.3.3"/><path d="M16.2 49.5c-.5 0-.8-.4-.8-.9 0 0 0-3.9-3.2-7.6a1 1 0 0 1 0-1.2c.4-.4.9-.4 1.2 0a14 14 0 0 1 3.6 8.9c0 .4-.4.8-.8.8"/><path d="M29 60.5a.8.8 0 0 1-.8-.4s-2.1-4-5.2-6c-1.2-1-2.8-1.8-4.4-2.7-6.8-3.8-16-9-18.6-20.6 0-.4.2-.9.6-1 .5 0 1 .2 1 .7a23 23 0 0 0 7.2 12.3c3.4 3 7.2 5.2 10.6 7.1 1.6 1 3.2 1.8 4.5 2.7 3.4 2.4 5.7 6.5 5.8 6.7.2.4 0 .9-.4 1.1l-.4.1"/><path d="M29.2 60.5a28.4 28.4 0 0 1-20.7-8.7A29.8 29.8 0 0 1 0 30.6c0-.4.4-.8.8-.8.5 0 .9.4.9.8a28.6 28.6 0 0 0 16.8 26c3 1.4 6.4 2.1 9.7 2.2a14.6 14.6 0 0 1 2.5-9c1.2-1.7 2.9-3.3 4.9-4.7 2.6-1.7 5.1-2.8 7.6-3.8 2.3-1 4.6-2 6.4-3.3 4-3.1 7.2-7.8 7.2-7.8.2-.3.6-.5 1-.4.3.2.5.5.5.8a30.4 30.4 0 0 1-7 19.4l-.3.4a29.2 29.2 0 0 1-21.8 10.1m27.3-27.2a37.7 37.7 0 0 1-6 6c-1.9 1.6-4.2 2.5-6.7 3.6-2.4 1-4.9 2-7.3 3.6a15.6 15.6 0 0 0-4.4 4.3 13.3 13.3 0 0 0-2.2 8 26.7 26.7 0 0 0 19.9-9.5l.3-.4a28.3 28.3 0 0 0 6.4-15.6"/><path d="M42.6 54.5c-3.2 0-6.2-.6-8-1-.4-.2-.7-.7-.6-1.2.1-.6.6-.9 1-.8 2.4.7 6.9 1.6 11 .8.5 0 1 .3 1 .8s-.2 1-.7 1.1c-1.2.2-2.5.3-3.7.3"/><path d="M34.8 53.5a.8.8 0 0 1-.8-.8s0-2.2 1.2-4.8c.7-1.5 1.7-2.8 3-4 1.5-1.4 3.4-2.5 5.7-3.3.4-.2.9 0 1 .5.2.4 0 .9-.4 1a15 15 0 0 0-5.2 3c-1 1-2 2.3-2.6 3.6-1 2.2-1 4-1 4 0 .4-.4.8-.9.8m11.2-4c-1.6 0-3 0-4.3-.3a.8.8 0 0 1-.7-1c0-.4.5-.7 1-.7 2.2.4 5 .4 8.1.1.5 0 .9.3.9.8 0 .4-.3.9-.7.9l-4.3.2"/><path d="M41.8 49.5c-.4 0-.8-.3-.8-.8 0-.2-.1-4.6 3.6-8.9.3-.4.8-.4 1.1 0 .4.3.4.8 0 1.2a12.4 12.4 0 0 0-3 7.6c0 .5-.4 1-.9 1"/><path d="M29.4 60.5H29a.9.9 0 0 1-.3-1.2c0-.2 2.3-4.3 5.8-6.7 1.2-.9 2.8-1.8 4.5-2.7 3.3-1.9 7.1-4 10.5-7.1a23 23 0 0 0 7.2-12.3c.1-.5.5-.8 1-.7.4.1.7.6.6 1-2.5 11.6-11.8 16.8-18.6 20.6L35.4 54a20 20 0 0 0-5.3 6c-.1.4-.4.5-.7.5"/></g></svg>