<svg xmlns="http://www.w3.org/2000/svg" width="77" height="69"><path fill="#74B44D" fill-rule="evenodd" d="M61.7 58.4c-.4 0-.8-.2-1.2-.4l.5-.8-.5.8-2-1.2h-.1v-1l.4.9-1.2.6a2.3 2.3 0 0 1-2 0l-1.4-.6.3-.9-.2 1-2.5-.8c-.4 0-.7-.2-1-.5l-1.3-1.3c-.3-.3-.6-.7-.7-1.1l1-.2-1 .2-.3-1.3.9-.5-.7.7-1-1.2.5-.8-.5.8-2.2-1.2.2-1v1h-1.3c-.4 0-.7 0-1-.2l-1.7-.9c-.6-.3-1-.9-1.2-1.6l-.1-.6.9-.4-.8.6-2.7-3.3.4-.8v1l-2.5-.3-.5-.1-1.8-.9v-1l.2 1-2.9.3-.7.2-1.7.7-1.6.4-2 .2-.2-1 .4 1-2 .9-.6-.8.7.7-1.8 1.7c-.4.4-1 .6-1.6.6h-5.1l-.4-.8.6.7-1 1-.3.1-2.4 1.4-.4-.9.4.9c-.3.2-.7.3-1 .3H7.4c-.4 0-.8-.2-1.2-.4l-1.7-1-.3-.4-.7-.8a2.1 2.1 0 0 1 0-2.6l.5-.8 1 .4-1-.2.3-1.6L3 39.8a2 2 0 0 1-.3-1v-1.6l-.1-.5c-.8-.9-1.1-2-1.2-3.1l.9-.4-.8.5L.4 32a2.1 2.1 0 0 1-.2-2l.4-1h1l-1 .3L.2 27l-.1-.5V26l.6-3.5c.2-.6.6-1.2 1.2-1.5l4-2c.2-.2.6-.3 1-.3v1l-.1-1h1.8l.3.9-.4-1 3-1.2h.1l3.8-1.2.6.8-.8-.6 1.2-1.6 1 .2h-1v-1.8c0-.8.5-1.5 1.2-1.9l3.3-1.7.7.7-.9-.5.5-.8.4-.5 2.4-2a2.2 2.2 0 0 1 2-.5l1.6.4c.6.1 1.2.5 1.5 1l.2.4-.4.9v-1 1-1h.6l.4.8-.7-.6.8-1 .8.6-.9-.4.8-2.4 1 .2h-1V3.9c0-1.2 1-2.1 2-2.2l4-.2v1-1h.2l.8.1 3 1.2h.1l-.1 1v-1l2.8-.2h.2c.7 0 1.4.3 1.8.8l-.8.6.8-.6.2.3a2.1 2.1 0 0 1 .2 2.4L44 9l-1 .2.7-.8 2.1 1.9-.5.8.4-.9 3.5 1.6 1.5.8.3.9-.8-.5.5-.9.9.4-1-.3L52 7.8l.6-3.3 1 .1h-1v-2c0-.5.3-1 .7-1.5a2.2 2.2 0 0 1 3.6.6l1.3 3 .1.2.6 2.3-.7.7.4-.9 1.5.7c.6.3 1 .9 1.2 1.6l.4 1.9-.9.4.7-.6.8 1c.2.2.4.5.4.8l.7 2.5-.8.5.6-.7 4.1 3 .4.5 1.5 2.6-.4.9v-1h.1c.6 0 1 .2 1.5.5l.5.5c.5.4.8 1 .8 1.6v.5l-.9.3.7-.6 3.4 3.8.4.7.7 2.3.9 2.5a2.1 2.1 0 0 1 0 1.5l-.7 1.8-1-.3 1 .2-1 4.1-.2.4-2.4 4.1-.8-.5.9.4-2.7 6.7-1-.3 1 .2-.7 2.4c-.2 1-1 1.5-1.8 1.6l-2.1.3-.5-.9.7.7-2 2h-.2l-.4.3c-.4.3-.8.5-1.3.5v-2h.2l.3-.3h.1l2-2 .4-.1h.1l2.4-.4c.2 0 .3-.1.3-.2l.7-2.4v-.1l2.7-6.8 2.4-4V40l1-4 .8-2 .9.4-1-.3v-.1l-.8-2.6-.7-2.3.9-.3-1 .3-3.4-4-.2-.3v-1l-.1-.1-.5-.5H68.6l-.5-.3-.3-.2-1.6-2.8-.2-.3-4-3-.3-.3v-.1l-.8-2.8-.8-1-.1-.2-.1-.2v-.1l-.5-2.2-.1-.1-1.5-.7-.2-.1-.3-.4-.1-.2-.7-2.6v-.1L55 2.6l-.3-.1h-.2v.2c.2 3.5-1.1 7-2.1 10.3l-.5 1-.2.3-.8.2-.4.1-2.1-1L45 12l-.2-.1-2.5-2.2-.2-.8v-.3L44 5v-.2l.8-.6-.8.6-.2-.3-.3-.1-3 .2h-.3l-3.4-1.3.3-.9-.3 1h-.1l-4 .1-.2.1V4c0 1.5-.5 2.9-1.1 4.2l-1 1.1v.2l-.5.2-.1.1H28.5l-.5-.2-.2-.2-.5-.8-.2-.1-1.7-.4H25L23 10l-.2.1-.4.7v.2l-.3.2-.1.1-3.5 1.8-.2.2v2.3l-.1.2-1.6 2-.2.2-.2.1-4 1.2-3 1.3h-.3l-2 .1h-.2l-4 2.1v.2l-1-.2 1 .2-.7 3.5-1-.2 1 .1v.1l.7 2.5v.5L2 30.8v.1l1.2 1.9v.1l.1.1.4 1.7v.2l.5.7-.8.6.8-.6c.4.5.5 1 .5 1.6v1.6l1.4 2.6.2.9v.3L6 44.3l-.2.3v.1l-.7 1v.2l.5.6.2.2 1.5 1H10.1l2.2-1.3h.2l1-1 .5-.2h.1l3-.1h2.5l.3-.1 1.8-1.8h.2V43l2.3-1h.2l2.1-.3a4 4 0 0 0 1-.3l1.8-.7 1.2-.3 3-.3h.4l1.9.9h.2l2.5.3.4.2.2.1 3 3.7v.2l.1.2.2.8.1.2 1.7.9-.4.8.4-.8h1.6l.3.1h.1l2.5 1.4h.2v.1l1.3 1.5c.3.6.4 1.2.5 1.9l1.5 1.4h.1l-.2 1 .2-1 2.5.8h.1l1.5.7H56.7l1.3-.7h1l2.5 1.5h.2v2zm.8 10.1h-.3c-.8 0-1.5-.4-2-1l-.1-.4.8-.5-.7.6-.9-.7c-.4-.4-.7-1-.7-1.6v-1.1l1-.3-1 .4-.6-1.4.8-.4-.8.4a2 2 0 0 1-.2-.9v-.3c0-.6.2-1.1.6-1.5.4-.4 1-.6 1.6-.6.4 0 .8.1 1.2.4l1 .7v1l-.3-1 1.7-.5h.5l.1-.1h.4c.6 0 1.1.2 1.5.6.4.4.7 1 .7 1.5v1.8c0 .5-.2 1-.5 1.4l-1.6 1.9-.8-.6.9.5-.4.6c-.4.7-1.1 1.1-1.9 1.1v-2h.3l.3-.7h.1v-.1l1.7-2v-1.9l-.3-.2c-1 0-2 .9-3 .5l-1.4-.9h-.5v.4l.7 1.5V65l.2.1.8.8.2.1.3.6h.6v2z"/></svg>