<svg xmlns="http://www.w3.org/2000/svg" xmlns:xlink="http://www.w3.org/1999/xlink" width="46" height="65"><defs><path id="a" d="M0 .8h45.5V65H0z"/></defs><g fill="none" fill-rule="evenodd"><g transform="translate(0 -.5)"><mask id="b" fill="#fff"><use xlink:href="#a"/></mask><path fill="#387B2B" d="M22.8 65A23 23 0 0 1 0 42c0-5.2 3.7-13.7 11.1-25.2 5.5-8.5 11-15.6 11-15.6a.8.8 0 0 1 1.3 0s4.2 5.4 8.9 12.3v.1c3.7 5.5 6.7 10.6 8.9 15a33.4 33.4 0 0 1 4.3 14A23 23 0 0 1 22.8 65m0-62c-1.6 2.1-6 8-10.3 14.7C5.4 28.7 1.6 37.2 1.6 42v1a21.3 21.3 0 0 0 21.2 20.4 21.3 21.3 0 0 0 21.1-20.8V42c0-5.3-4.5-14.8-13-27.5A237 237 0 0 0 22.8 3" mask="url(#b)"/></g><path fill="#74B44D" d="M22.8 58.5a.8.8 0 0 1-.8-.8c0-.5.4-.8.8-.8A14.3 14.3 0 0 0 33.6 52c1.5-1.6 2.7-3.6 3.4-5 2-3.9 3.6-8.5 4.4-13.8 0-.4.5-.7 1-.7.4.1.7.5.6 1A37.8 37.8 0 0 1 34.8 53a16.3 16.3 0 0 1-12 5.4m-3.6-1H19A16.6 16.6 0 0 1 6 41.3a.8.8 0 0 1 1.6 0v.7a15 15 0 0 0 11.8 14 .8.8 0 0 1-.2 1.5m3.6-9a.8.8 0 0 1-.8-.7c0-.4.2-.8.7-1 1.9-.3 3.7-1 5.3-2.2 1.4-1 2.7-2.5 3.8-4.3l.2-.2c2.6-3.9 4.2-9.9 4.4-16.8 0-.4.4-.8.8-.8.5 0 .8.4.8.9-.2 4.7-.9 9-2.2 12.6-1 2.9-2.2 4.6-2.5 5.1l-.1.1a17 17 0 0 1-4.3 4.8 14.2 14.2 0 0 1-6 2.5h-.1m0-12a.8.8 0 0 1-.7-.3.8.8 0 0 1 .2-1.2c2-1.4 3.7-3.3 4.8-5.6 1-1.9 3.2-7.2 3.3-16 0-.5.4-.9.8-.9.5 0 .8.4.8.8a38.5 38.5 0 0 1-3.5 16.8c-1.2 2.6-3 4.7-5.3 6.3l-.4.1m0-14a.8.8 0 0 1-.6-.3.8.8 0 0 1 0-1.1c1-.8 2-3.3 2.6-6.4.7-3.2.8-6.7.4-9.2 0-.5.2-.9.7-1 .4 0 .8.3.9.7a29 29 0 0 1-.5 9.9c-.3 1.6-1.3 5.7-3 7.2-.2.2-.3.2-.5.2"/><path fill="#74B44D" d="M23 64.5c-.5 0-1-.3-1-.8V1.3c0-.4.5-.8 1-.8s1 .4 1 .8v62.4c0 .5-.5.8-1 .8M22 63A21.5 21.5 0 0 1 1.6 41.4c0-4.9 3.8-13.3 10.9-24.4C16.2 11 20 6 22 3.2V.5c-1 1.3-6 7.9-10.9 15.6C3.7 27.6 0 36 0 41.4v1a23.1 23.1 0 0 0 22 22.1V63zm19.7-35c-2.2-4.5-5.2-9.5-9-15v-.2C28.6 6.5 24.8 1.7 24 .5v2.7c1.6 2.2 4.4 6 7.4 10.4v.1c8.5 12.8 13 22.4 13 27.7v.5A21.5 21.5 0 0 1 24 63v1.6a23.1 23.1 0 0 0 22-23.1c0-3.2-1.5-7.8-4.3-13.6"/></g></svg>