<svg xmlns="http://www.w3.org/2000/svg" width="19" height="19"><g fill="#74B44D" fill-rule="evenodd"><path d="M9.5 0h-4a7 7 0 0 0-2.2.5c-.6.2-1.2.6-1.7 1C1 2.2.7 2.8.5 3.4a7 7 0 0 0-.4 2.3 67.4 67.4 0 0 0 .4 10.1c.2.6.6 1.2 1 1.7.6.5 1.2.9 1.8 1.1a7 7 0 0 0 2.3.4 67.4 67.4 0 0 0 10.1-.4c.6-.2 1.2-.6 1.7-1.1.5-.5.9-1 1.1-1.7a7 7 0 0 0 .4-2.3 67.4 67.4 0 0 0-.4-10.1c-.2-.6-.6-1.2-1.1-1.7-.5-.5-1-.9-1.7-1.1a7 7 0 0 0-2.3-.4L9.5 0zm0 1.7a66 66 0 0 1 5.6.4c.4.2.8.4 1 .7.4.3.6.7.8 1.1.1.3.3.8.3 1.8A66 66 0 0 1 17 15a3 3 0 0 1-.7 1 3 3 0 0 1-1.1.8c-.3.1-.8.3-1.8.3A65.9 65.9 0 0 1 4 17a3 3 0 0 1-1.1-.7 3 3 0 0 1-.7-1.1c-.1-.3-.3-.8-.3-1.8A66 66 0 0 1 2 4l.7-1.1a3 3 0 0 1 1.1-.7c.3-.1.8-.3 1.8-.3h3.8z"/><path d="M9.5 12.7a3.2 3.2 0 1 1 0-6.4 3.2 3.2 0 0 1 0 6.4zm0-8a4.9 4.9 0 1 0 0 9.7 4.9 4.9 0 0 0 0-9.8zm6.2-.3a1.1 1.1 0 1 1-2.3 0 1.1 1.1 0 0 1 2.3 0"/></g></svg>