<svg xmlns="http://www.w3.org/2000/svg" width="81" height="64"><g fill="#74B44D" fill-rule="evenodd"><path d="M21.2 1.8c1.1 2.8 0 5.7-.8 8.4-.4.3-.4.9-.8 1.3.3.2.5-.2.8-.4 3.6-3 8.4-5.1 13.3-4 .4.3 1 .5 1 1-.7 3.6-4.7 6-8 7.9a61 61 0 0 1 24.3-.8c3 .8 6 3 7.7 5.5 1.2 1.9 1.2 4.5.7 6.7-.5 1.2-.6 2.7-1.5 3.8l2.4-.5c1.5.2 3 .9 3.4 2.3.2 1 .2 2 0 3.1a10 10 0 0 1-7.3 5c-1.3.2-2.7 0-3.7-.6 3.4-.1 6.7-1.5 8.5-4.3a3 3 0 0 0 .1-2c-.5-1.3-1.9-1.6-3.2-1.6-1 .2-2.1.3-3 1-.2-.4.3-.7.5-1 1-2.3 1.9-5.1 1.3-7.8-.7-3-3.3-5.4-6.4-6.4a24.8 24.8 0 0 0-7.9-1.6c-9.4-.8-18 1-26.3 2.9a4 4 0 0 1 1.8-1c4.4-2 8.7-4.3 12.1-7.8 0-.4.5-.6.4-1-1-1-2.1-.1-3.2 0-4.5 1.6-9 3.8-12.4 7.2h-.3c2.1-3 3.2-6.3 4.2-9.7 0-1 .9-2.4-.2-3.1-1.5.4-2.1 2-3 3.1a40.5 40.5 0 0 0-4 9.1c-.6 1.1-.8 2.4-1.3 3.5h-.2c.2-7 1.6-13.6 6.9-18.5 1-1.3 3.6-1.4 4.1.3M9.3 20.5c-.1.7-1 .7-1.5 1.2-1.8 1-2.9 3-4 4.5-.5 1.9-1.6 4-.2 5.8 1.9.9 4.2.5 6.3.4.1.9-1.1 1-1.7 1.4-2.5.4-5.3 1.2-7.3-.7-2-2.5-.2-5.7 1.2-8 1.1-1.3 2.1-2.5 3.8-3.1 1-.7 2.1-1.3 3.4-1.5"/><path d="M51 24.7v.2c-3.2-2-8.3-2.4-11.7-.6-2.8 1.3-5 4-4.7 6.7.2 1.8 1.8 3.1 3 4.5.8.8 1.4 1.7 1.5 2.8 0 1.7-2 2.4-3.3 3-1.8.3-4 1-5.7.2v-.1c2.2-.5 4.7-.8 6-2.6-.1-1.8-2-3-3-4.4a6.3 6.3 0 0 1-.5-6.8c.5-1 1.4-2.2 2.4-3 3.2-3.3 8.7-3.8 13-2.3 1.2.4 2.1 1.4 3 2.4M16.2 35c.6 1.2.2 2.6-.7 3.6-.8.8-2 1.7-3.3 1.5 0-.5.8-1 1.2-1.3.9-1 1-2.8.2-4-.8-.7-1.7-1.3-2.6-1.7-.2-.1 0-.3.1-.3 2-.1 4.2.4 5 2.2M5.7 45v5.5L2.5 45H0v9h2.3v-5.6L5.5 54H8v-9zM11.4 49.5c0-1.3.6-2.6 2.1-2.6s2.1 1.3 2.1 2.6-.6 2.6-2.1 2.6-2.1-1.3-2.1-2.6m-2.4 0C9 52 10.6 54 13.5 54s4.5-2 4.5-4.5-1.6-4.5-4.5-4.5S9 47 9 49.5M26 47h-2.8v7h-2.4v-7H18v-2h8zM38 47h-2.8v7h-2.4v-7H30v-2h8zM38 45h6.9v1.9h-4.7v1.6h4.3v1.8h-4.3V52H45v2h-7zM48.4 51c0 1 .7 1.3 1.7 1.3.8 0 1.5-.3 1.5-1s-1.3-.8-2.6-1.2c-1.4-.3-2.7-.9-2.7-2.5 0-1.9 2-2.6 3.7-2.6 1.9 0 3.7.8 3.7 2.8h-2.4c0-.8-.7-1-1.5-1-.5 0-1.1.1-1.1.7s1.3.8 2.6 1.1c1.4.4 2.7 1 2.7 2.5 0 2.2-2 2.9-4 2.9-2.1 0-4-.9-4-3h2.4zM62 47h-2.8v7h-2.4v-7H54v-2h8zM63 45h6.9v1.9h-4.7v1.6h4.3v1.8h-4.3V52H70v2h-7zM73.2 46.5h1c1.6 0 2.5.8 2.5 2.3 0 1.7-.7 2.4-2.4 2.4h-1.1v-4.7zm-2.3 6.6h3.8c2.6 0 4.3-1.5 4.3-4.2s-1.6-4.3-4.3-4.3h-3.8v8.5zM2.8 59.6c0-1.3.5-2.6 2-2.6s2 1.3 2 2.6c0 1.2-.5 2.5-2 2.5s-2-1.3-2-2.5m-2.3 0C.5 62 2 64 4.8 64s4.4-2 4.4-4.4C9.2 57 7.6 55 4.8 55c-2.8 0-4.3 2-4.3 4.5M15.7 55v5.5L12.5 55H10v9h2.3v-5.6l3.2 5.6H18v-9zM25.3 55L22 64h2.4l.5-1.6H28l.6 1.6H31l-3.3-9h-2.4zm1.2 2.5l1 3.1h-2l1-3.1zM36.7 55v5.5L33.5 55H31v9h2.3v-5.6l3.2 5.6H39v-9zM41 64h2v-9h-2zM50.6 55L49 61l-1.6-6H44v9h2.2v-6.8l1.9 6.8h1.8l1.9-6.8V64H54v-9zM58.3 55L55 64h2.4l.5-1.6H61l.6 1.6H64l-3.3-9h-2.4zm1.2 2.5l1 3.1h-2l1-3.1zM65 55v9h6v-2h-3.8v-7zM73.5 61c0 1 .7 1.3 1.7 1.3.7 0 1.4-.3 1.4-.9 0-.7-1.3-.9-2.5-1.2-1.3-.4-2.7-1-2.7-2.5 0-1.8 2-2.6 3.7-2.6 1.7 0 3.5.9 3.6 2.8h-2.4c0-.8-.7-1-1.4-1-.5 0-1.1.1-1.1.7s1.2.7 2.6 1c1.2.4 2.5 1 2.5 2.5C79 63.3 77 64 75 64s-3.8-.9-3.8-3h2.3zm6.6-25.2c0 3.3-3 6-6.9 6-3.8 0-7-2.7-7-6s3.2-5.8 7-5.8c3.9 0 7 2.5 7 5.8zm-12 0c0 2.6 2.2 4.7 5.2 4.7 2.9 0 5.1-2 5.1-4.6 0-2.7-2.2-4.8-5.2-4.8S68 33.2 68 35.8zm4 3h-1.5V33l2.6-.2c1.3 0 1.9.2 2.3.5.4.2.7.7.7 1.2 0 .7-.6 1.2-1.4 1.4.6.3 1 .7 1.2 1.5.2 1 .4 1.2.5 1.5h-1.7l-.5-1.5c-.1-.6-.5-.9-1.4-.9h-.8V39zm.1-3.2h.8c.8 0 1.5-.3 1.5-.9 0-.5-.5-.9-1.4-.9h-.9v1.8z"/></g></svg>