<svg width="76" height="16" xmlns="http://www.w3.org/2000/svg"><g fill-rule="nonzero" fill="none"><path d="M37.5 8c0-1-.9-2-2-2a2 2 0 0 0-1.8 2c0 1 .9 2 1.9 2a2 2 0 0 0 1.9-2zm.8-2.7a3.8 3.8 0 0 1 0 5.4c-.7.7-1.7 1-2.7 1-.7 0-1.3-.2-1.8-.6V11v4.2l-2 .6V4.3h2V5c.6-.6 1.2-.7 1.8-.7 1 0 2 .4 2.7 1.1z" fill="gray"/><path d="M42 8c0 1 .8 2 1.9 2a2 2 0 0 0 1.8-2c0-1-.8-2-1.8-2a2 2 0 0 0-2 2zm-.8 2.7a3.8 3.8 0 0 1 0-5.4c.7-.7 1.6-1.1 2.7-1.1.6 0 1.2.2 1.8.7v-.6h2v7.3h-2v-.5c-.6.6-1.3.7-1.8.7-1 0-2-.4-2.7-1.1zM49.6 15.8l1.7-4.2-2.9-7.3h2.1l1.8 4.6 1.9-4.6h2.1l-4.6 11.5h-2.1M3.7 5.4A2.5 2.5 0 0 0 1.2 8c0 1.4 1.1 2.5 2.5 2.5S6.3 9.4 6.3 8 5 5.4 3.7 5.4zm0 6.3c-1 0-2-.4-2.6-1a3.8 3.8 0 0 1 0-5.3c.7-.7 1.6-1.1 2.6-1.1s1.9.5 2.4 1h.2v-.9h1.1v7.1H6.3v-1l-.2.2c-.5.5-1.4 1-2.4 1zM9.6 11.5v-6H8.5v-1h1V2.2c0-1.2 1-2.2 2.4-2.2h1.5L13 1h-1.2c-.6 0-1.2.6-1.2 1.3v2H13v1.2h-2.3v6H9.6M17.4 11.5c-1.3 0-2.3-1-2.3-2.3V5.6h-1V4.4h1V.1h1.2v4.3h2.2v1.2h-2.2v3.6c0 .6.5 1.2 1.2 1.2h1.1l.3 1.1h-1.5M22.5 5.5c-1 0-1.8.6-2.1 1.6v.2h4.3l-.1-.2c-.3-1-1.2-1.6-2.1-1.6zm0 6.2c-1 0-1.8-.4-2.4-1.1-.6-.6-.9-1.4-1-2.3V8a3.9 3.9 0 0 1 1-2.5 3.2 3.2 0 0 1 4.8 0c.5.5.8 1 .9 1.7v1h-5.5v.2c.1 1.2 1 2.2 2.2 2.2.6 0 1.3-.3 1.8-.8l1 .6-1 .7a4 4 0 0 1-1.8.6zM27 11.5v-7h1.2v.8l.2-.1c.4-.5 1.6-.9 2.4-1l-.3 1.3c-1.3 0-2.3 1-2.3 2.2v3.8H27" fill="gray"/><path d="M66.5 6.4l2-1.2-.4-.7c-.2-.4 0-.6.4-.6h4c.3 0 .4.2.2.5l-2 3.5c-.2.3-.4.3-.6 0l-.4-.7-2 1.2v.2l1.3 2.2c.7 1 2 1.1 2.7.2l.2-.4 3.8-6.5.3-.7c.2-1-.5-1.9-1.5-1.9h-8c-1.3 0-2 1.3-1.5 2.3l.6 1 .9 1.6" fill="#D2D2D2"/><path d="M60.5 13v-2.3h-.8c-.4 0-.5-.2-.3-.6l2-3.4c.2-.3.4-.4.6 0l2 3.4c.2.4 0 .6-.4.6h-.8V13h2.8c1.2 0 2-1.2 1.5-2.3a3 3 0 0 0-.2-.3L63.2 4l-.5-.6c-.7-.7-1.8-.5-2.4.4l-4 6.9c-.5 1 .1 2.3 1.3 2.3h3" fill="gray" style="mix-blend-mode:luminosity"/></g></svg>