<svg width="54" height="15" xmlns="http://www.w3.org/2000/svg"><g fill-rule="nonzero" fill="none"><path d="M6.4 0h-4c-.3 0-.6.3-.6.6L0 11.2l.1.3.3.1h2c.2 0 .4-.2.5-.5l.4-2.9c0-.2.3-.4.6-.4h1.3c2.7 0 4.2-1.4 4.6-4 .2-1.1 0-2-.5-2.7-.6-.7-1.6-1-3-1zM7 4c-.2 1.4-1.3 1.4-2.4 1.4h-.7l.5-2.7c0-.2.2-.3.3-.3H5c.7 0 1.4 0 1.8.4.2.3.3.6.2 1.2zm11.8 0h-2c-.2 0-.3 0-.3.2l-.1.6-.2-.2c-.4-.7-1.3-.9-2.3-.9-2.1 0-4 1.7-4.4 4-.1 1.2.1 2.3.8 3 .6.8 1.4 1 2.4 1 1.8 0 2.8-1 2.8-1l-.1.5v.3l.3.1h1.8c.2 0 .5-.2.5-.5l1-6.8V4h-.2zm-2.8 3.8c-.2 1.1-1 1.9-2.2 1.9-.6 0-1-.2-1.3-.6-.3-.3-.4-.8-.3-1.4.2-1 1-1.9 2.2-1.9.5 0 1 .2 1.3.6.3.3.4.8.3 1.4zm13.2-3.9h-2c-.2 0-.3.1-.5.3l-2.7 4-1.1-3.9c0-.2-.3-.4-.6-.4h-1.9c-.1 0-.2 0-.3.2v.3l2.1 6.4-2 3v.3l.3.2h2l.4-.3 6.6-9.5V4l-.3-.2z" fill="gray"/><path d="M35.9 0h-4.2c-.3 0-.5.3-.6.6L29.4 11l.1.3.3.1h2.1c.2 0 .4-.1.4-.3l.5-3c0-.2.3-.5.6-.5h1.3c2.8 0 4.4-1.3 4.8-3.8.2-1.2 0-2-.6-2.7-.6-.7-1.6-1-3-1zm.5 4C36 5.3 35 5.3 33.9 5.3h-.6l.4-2.8.3-.3h.3c.8 0 1.5 0 1.9.5.2.2.3.6.2 1.1zm12-.1h-2c-.2 0-.3 0-.3.2l-.1.6-.2-.2c-.4-.6-1.4-.8-2.3-.8a4.6 4.6 0 0 0-4.5 4c-.2 1 0 2.2.7 3 .6.6 1.5 1 2.6 1 1.7 0 2.7-1.2 2.7-1.2v.8l.3.1H47c.3 0 .5-.2.6-.4l1-6.7V4l-.3-.1zm-2.8 3.8a2.2 2.2 0 0 1-2.2 1.8c-.6 0-1-.1-1.4-.5-.3-.3-.4-.8-.3-1.4a2.2 2.2 0 0 1 2.2-1.8c.6 0 1 .1 1.4.5.3.3.4.8.3 1.4zM50.8.4L49 11v.3l.3.1h1.7c.3 0 .6-.2.6-.4L53.4.5V.2L53 0h-2c-.1 0-.3.1-.3.3z" fill="#D2D2D2"/></g></svg>