<svg width="248" height="53" viewBox="0 0 248 53" xmlns="http://www.w3.org/2000/svg" xmlns:xlink="http://www.w3.org/1999/xlink"><defs><path id="a" d="M0 .5h31.3v31.7H0z"/></defs><g fill="none" fill-rule="evenodd"><path d="M89.3 51H88c-.2 0-.3-.2-.3-.3v-2.3h1.6c.8 0 1.3.5 1.3 1.3 0 .7-.5 1.2-1.3 1.2zm-1.6-6.1h1.4c.8 0 1.1.5 1.1 1 0 .7-.3 1.2-1 1.2h-1.5V45zm3.1 2.8a2 2 0 0 0 1.1-2c0-1.4-1.1-2.2-2.8-2.2h-3.9V45h.8v6.6c0 .6.3.8 1 .8h2.2c1.7 0 3.1-.8 3.1-2.5 0-1-.5-1.8-1.5-2.1zM99.5 44.2L98.3 46l-.6 1-.5-1-1.2-2c-.4-.5-.6-.6-1.2-.6h-.9V45h.3c.3 0 .4 0 .5.3l2.2 3.3v3.8h1.6v-3.8l2.2-3.3c.2-.3.2-.3.5-.3h.3v-1.4h-.8c-.6 0-.9.1-1.2.7M107.2 47.6h-1.3V45h1.3c.8 0 1.3.5 1.3 1.4 0 .8-.5 1.3-1.3 1.3m2.9 3l-1-1.6a1 1 0 0 0-.4-.5c.4 0 1.5-.7 1.5-2.3 0-1.7-1.1-2.7-2.8-2.7h-4V45h.8v7.4h1.7V49h.8c.5 0 .7 0 .8.4l1.2 2.3c.3.5.6.6 1.3.6h.9V51h-.2c-.3 0-.5 0-.6-.2M117.3 51a3 3 0 0 1-3-3.1 3 3 0 0 1 3-3 3 3 0 0 1 3 3 3 3 0 0 1-3 3m0-7.5c-2.7 0-4.7 2-4.7 4.5s2 4.6 4.7 4.6 4.7-2 4.7-4.6c0-2.6-2-4.5-4.7-4.5M130.5 44.4v4l.1 1.2-.8-1.2-3.4-4.9H125v7.2c0 .1-.1.2-.3.2h-.5v1.4h1.6c.6 0 .9-.2.9-.8v-4l-.1-1.3.8 1.3 3.4 4.8h1.5v-7.1c0-.2.1-.3.3-.3h.5v-1.4h-1.6c-.6 0-.9.3-.9.9M144 51h-1.4c-.2 0-.3-.2-.3-.3v-2.3h1.6c.8 0 1.3.5 1.3 1.3 0 .7-.5 1.2-1.3 1.2zm-1.7-6.1h1.4c.8 0 1.2.5 1.2 1 0 .7-.4 1.2-1.1 1.2h-1.5V45zm3.2 2.8a2 2 0 0 0 1-2c0-1.4-1.1-2.2-2.8-2.2h-3.9V45h.9v6.6c0 .6.2.8.8.8h2.3c1.7 0 3.1-.8 3.1-2.5 0-1-.5-1.8-1.4-2.1zM151.9 48.7l.7-2.2.4-1.3.4 1.3.8 2.2h-2.3zm4.7 2l-2.7-7.2h-1.8l-2.6 7.2c-.1.2-.2.2-.4.2h-.2v1.4h1c.6 0 .8-.1 1-.7l.6-1.5h3l.6 1.5c.2.6.4.7 1 .7h1V51h-.1c-.2 0-.3 0-.4-.2zM163.3 44.2l-1.2 1.9-.5 1-.6-1-1.2-2c-.4-.5-.6-.6-1.2-.6h-.9V45h.3c.3 0 .4 0 .6.3l2.1 3.3v3.8h1.7v-3.8l2.1-3.3c.2-.3.3-.3.5-.3h.3v-1.4h-.8c-.6 0-.9.1-1.2.7M61.4 48.4c0 .1 0 .2-.2.2h-1.4c-.1 0-.2 0-.2-.2V47h2v-1h-2v-1.6H61c.1 0 .2 0 .2.2v.3h1V44c0-.4-.1-.6-.5-.6h-3.9v1h.6V49c0 .4.2.6.6.6H62c.4 0 .6-.2.6-.6v-1h-1v.4zM64.3 45c0-.4.4-.7 1-.7.3 0 .8.2.8.5v.3h1v-.6c0-.8-1.1-1.2-1.9-1.2-1.2 0-2.1.8-2.1 1.8 0 1.9 3 1.8 3 2.8 0 .5-.4.8-1 .8-.8 0-1.5-.8-1.5-.8l-.6.8s.8 1 2.2 1c1.3 0 2-.9 2-1.8 0-2-3-1.8-3-2.9M72.7 43.4h-4.4c-.4 0-.6.2-.6.6v1h1v-.4c0-.1.1-.2.3-.2h1v5.2H71v-5.2h1c.1 0 .2 0 .2.2v.3h1v-1c0-.3-.1-.5-.6-.5M76.3 48.6h-.6c-.1 0-.2 0-.2-.2v-4h.8c1.2 0 2 .7 2 2 0 1.5-.8 2.2-2 2.2m0-5.2h-2.6v1h.6V49c0 .4.2.6.6.6h1.4c2 0 3.3-1.2 3.3-3.1 0-2-1.3-3-3.3-3M173.6 43.4h-1l-1.7 1.5.7.7.5-.5.3-.3v3.8H171v1h4v-1h-1.4v-5.2zM177.7 46.5c-.8 0-1.2-.5-1.2-1.1 0-.6.4-1 1-1 .7 0 1.2.7 1.2 1.4 0 .4-.4.7-1 .7m-.2-3.2a2 2 0 0 0-2.1 2c0 1.2.8 2.1 2 2.1.5 0 1-.2 1.2-.4-.1.8-.7 1.7-1.6 1.7l-1-.2-.3 1s.5.2 1.3.2c2 0 3-1.9 3-3.5 0-1.8-1.2-2.9-2.5-2.9M182.8 48.7c-.6 0-1-.4-1-1 0-.5.4-1 .6-1l.6.2c.5.3.9.5.9.9 0 .5-.5.9-1.1.9m0-4.4c.6 0 1 .3 1 .8s-.4.9-.6.9l-.4-.2c-.5-.1-.9-.3-.9-.8 0-.3.4-.7 1-.7m1.3 2.1s.7-.5.7-1.4c0-1-.8-1.7-2-1.7-1.4 0-2.1.8-2.1 1.7 0 .8.7 1.2.7 1.2s-1 .6-1 1.6c0 1.1 1 1.9 2.3 1.9 1.4 0 2.3-1 2.3-1.8 0-.7-.4-1.1-1-1.5M188 45.6l-.7.1v-1.1c0-.1.1-.2.3-.2h1c.1 0 .2 0 .2.2v.3h1V44c0-.4-.1-.6-.5-.6h-2.4c-.4 0-.5.2-.6.6l-.2 2.6.4.2s.5-.3 1.2-.3 1.4.4 1.4 1.1c0 .6-.5 1-1.2 1a2 2 0 0 1-1.5-.6l-.6.8s.8.9 2.1.9c1.5 0 2.4-1 2.4-2 0-1.2-1-2.1-2.4-2.1M33.5 8.6v23h4V7h-2.3c-1 0-1.7.8-1.7 1.7M45.3.4H43c-1 0-1.7.8-1.7 1.7v29.7h21.5v-3.7H45.3V.4z" fill="#387B2B" class="fill-color"/><g transform="translate(0 -.5)"><mask id="b" fill="#fff"><use xlink:href="#a"/></mask><path d="M27.4 16.4c0 7-5 12.4-11.7 12.4A12 12 0 0 1 3.8 16.4v-.1c0-7 5-12.3 11.8-12.3a12 12 0 0 1 11.8 12.4M15.7.5A15.4 15.4 0 0 0 0 16.4c0 9 6.7 15.8 15.6 15.8a15.4 15.4 0 0 0 15.7-15.8v-.1c0-9-6.7-15.8-15.6-15.8" fill="#387B2B" class="fill-color" mask="url(#b)"/></g><path d="M33.5 2v2.7h2.3c1 0 1.7-.8 1.7-1.8V.4h-2.3c-1 0-1.7.8-1.7 1.7M109.8 21.4L116.5 6l6.3 15.4h-13zM131 32L118.5 1.3h-2.9c-.6 0-1.3.4-1.5 1L101.4 32h4l3.1-7.2H124l3 7.2h4zM165 28.3V4.9h7.8c7.3 0 11.8 4.5 11.8 11.8 0 7.1-4.5 11.6-11.8 11.6H165zm23.6-11.6c0-9.3-6.1-15.3-15.7-15.4H161V32H173c9.6 0 15.7-6 15.7-15.2zM192.5 31.9h23.4v-3.6h-19.6v-9.5h16.5v-3.6h-16.5V5h19.6V1.3h-23.4zM244 1.3v24.2L223.7 1.3h-3.4V32h4v-24l20.3 24h3.3V1.3zM100.4 24.9s.6-2.8-3-7.2c-2-2.4-3-3.6-6.2-3.4-3.2.3-5.2 0-5.2 0 .5 1.8 2 6.6 7.3 6.6 2.8 0 4.3 1 5.2 1.7-.7-2.2-4-4-7.6-5.5 0 0 8.2.5 9.5 7.8" fill="#387B2B" class="fill-color"/><path d="M87.7 32.3c3.8 0 8.2-1.2 11.3-3 .8-.5 1-1.3 1-2 0-1.2-1.1-3.3-3.4-4v2.9a16.8 16.8 0 0 1-8.7 2.4c-7.5 0-12.5-4.8-12.5-12 0-7.1 5-12 12.3-12 2.8 0 5.2.7 7.4 2.1a3 3 0 0 0 3.8-.5l.6-.7-.3-.3c-3.4-3-7-4.3-11.5-4.3-9.6 0-16.2 6.5-16.2 15.8 0 9.2 6.6 15.6 16.2 15.6M136.7 4.9h9c4.8 0 7.6 2.1 7.6 5.7 0 3.7-3 6-7.6 6h-9V5zm17 26.9h4.8L149 19.6c5.1-1 8-4.3 8-9 0-2.4-.8-4.6-2.3-6.2-2-2-5.1-3-8.8-3H133v30.6h3.8V20h8.3l8.7 11.7z" fill="#387B2B" class="fill-color"/></g></svg>