<svg width="226" height="114" xmlns="http://www.w3.org/2000/svg" xmlns:xlink="http://www.w3.org/1999/xlink"><defs><path id="a" d="M.3.4h12V12H.3z"/><path id="c" d="M.7.4h40v40.5H.7z"/><path id="e" d="M0 .9h36.6v40.2H0z"/></defs><g fill="none" fill-rule="evenodd"><path d="M68.5 111.7h-1.7c-.2 0-.4-.2-.4-.4v-2.9h2c1 0 1.7.7 1.7 1.6 0 1-.6 1.7-1.6 1.7zm-2-7.8h1.7c1 0 1.5.6 1.5 1.4 0 .8-.5 1.5-1.4 1.5h-1.9v-2.9zm4 3.6c.6-.4 1.3-1.2 1.3-2.4 0-1.9-1.5-3-3.5-3h-5v1.8h1v8.4c0 .8.3 1.1 1.1 1.1h2.9c2.2 0 4-1 4-3.2 0-1.2-.6-2.3-1.9-2.7zM81.5 103l-1.6 2.5-.7 1.2-.7-1.2L77 103c-.5-.7-.8-.8-1.5-.8h-1.1v1.7h.3c.4 0 .5 0 .7.4l2.7 4.2v5h2.2v-5l2.7-4.2c.2-.3.3-.4.7-.4h.4v-1.7H83c-.8 0-1.1 0-1.5.8M91.3 107.4h-1.7V104h1.8c1 0 1.6.7 1.6 1.8 0 1-.6 1.7-1.7 1.7m3.7 3.9l-1.1-2.2c-.2-.4-.6-.5-.6-.5.5-.2 2-1 2-3 0-2.2-1.5-3.4-3.7-3.4h-5.2v1.7h1.1v9.5h2.1v-4.2h1.1c.6 0 .9.1 1.1.5l1.5 2.9c.4.7.7.8 1.6.8H96v-1.7h-.2c-.3 0-.6 0-.8-.4" fill="#387B2B"/><g transform="translate(98 101.6)"><mask id="b" fill="#fff"><use xlink:href="#a"/></mask><path d="M6.3 10c-2.1 0-3.8-1.6-3.8-3.9 0-2.2 1.7-3.8 3.8-3.8 2 0 3.7 1.6 3.7 3.8 0 2.3-1.6 4-3.7 4m0-9.7C2.9.4.3 2.9.3 6c0 3.3 2.6 5.9 6 5.9s6-2.6 6-5.9c0-3.2-2.6-5.7-6-5.7" fill="#387B2B" mask="url(#b)"/></g><path d="M121.2 103.2v5.2l.1 1.6s-.5-1-1-1.6l-4.4-6.2H114v9.1c0 .2-.1.4-.4.4h-.7v1.7h2.1c.8 0 1.1-.3 1.1-1v-5.2-1.6s.5 1 1 1.6l4.3 6.2h2v-9.1c0-.2 0-.4.3-.4h.7v-1.7h-2c-.9 0-1.2.3-1.2 1M138.3 111.7h-1.6c-.3 0-.4-.2-.4-.4v-2.9h2c1 0 1.7.7 1.7 1.6 0 1-.6 1.7-1.7 1.7zm-2-7.8h1.8c1 0 1.4.6 1.4 1.4 0 .8-.5 1.5-1.4 1.5h-1.8v-2.9zm4 3.6c.7-.4 1.4-1.2 1.4-2.4 0-1.9-1.5-3-3.6-3h-5v1.8h1v8.4c0 .8.4 1.1 1.2 1.1h2.9c2.1 0 4-1 4-3.2 0-1.2-.6-2.3-1.9-2.7zM148.5 108.8l1-2.8.5-1.7.5 1.7 1 2.8h-3zm6 2.5l-3.4-9.1H149l-3.5 9.1c0 .3-.2.4-.5.4h-.2v1.7h1.2c.9 0 1.1-.2 1.4-.9l.7-2h4l.7 2c.2.7.5 1 1.3 1h1.3v-1.8h-.3c-.2 0-.4-.1-.5-.4zM163.1 103l-1.5 2.5-.7 1.2-.7-1.2-1.6-2.5c-.4-.7-.7-.8-1.5-.8h-1v1.7h.3c.4 0 .5 0 .7.4l2.7 4.2v5h2.2v-5l2.7-4.2c.2-.3.3-.4.7-.4h.3v-1.7h-1c-.8 0-1.1 0-1.6.8M32.8 108.4c0 .2 0 .3-.2.3h-2s-.2-.1-.2-.3v-1.8h2.7v-1.3h-2.7v-2h1.9c.1 0 .2 0 .2.2v.5H34v-1.2c0-.5-.3-.8-.8-.8h-5v1.3h.8v5.9c0 .5.3.7.8.7h3.7c.5 0 .8-.2.8-.7V108h-1.4v.4zM36.4 104c0-.4.6-.8 1.2-.8s1.1.3 1.1.6v.4h1.4v-.7c0-1.2-1.5-1.6-2.4-1.6-1.6 0-2.8 1-2.8 2.2 0 2.5 3.9 2.4 3.9 3.7 0 .6-.6 1-1.2 1-1.1 0-2-1-2-1l-.8 1s1 1.2 2.8 1.2c1.7 0 2.7-1 2.7-2.3 0-2.6-3.9-2.3-3.9-3.6M47.3 102h-5.7c-.6 0-.7.2-.7.7v1.3h1.3v-.5c0-.1 0-.2.2-.2h1.3v6.6h1.5v-6.6h1.2c.2 0 .3 0 .3.2v.5H48v-1.3c0-.5-.2-.7-.7-.7M51.8 108.7H51c-.1 0-.2-.1-.2-.3v-5.1h1c1.6 0 2.6 1 2.6 2.7 0 1.7-1 2.7-2.6 2.7m0-6.7h-3.3v1.3h.8v5.9c0 .5.2.7.8.7h1.8c2.5 0 4-1.5 4-4 0-2.4-1.5-3.9-4-3.9M176.3 102h-1.4l-2 2 .9.8.6-.6.4-.4v4.9H173v1.2h5v-1.2h-1.7V102zM181.6 106c-1 0-1.5-.7-1.5-1.5 0-.7.4-1.3 1.2-1.3.8 0 1.6 1 1.6 2 0 .4-.6.8-1.3.8m-.3-4a2.6 2.6 0 0 0-2.7 2.5c0 1.5 1 2.7 2.6 2.7.6 0 1.3-.3 1.5-.6-.1 1-.8 2.1-2.1 2.1-.6 0-1.1-.2-1.1-.2l-.5 1.2s.7.3 1.7.3c2.5 0 3.7-2.3 3.7-4.4 0-2.4-1.4-3.7-3.1-3.7M188 108.7c-.7 0-1.3-.4-1.3-1.2 0-.6.6-1.2.9-1.2l.7.3c.6.2 1.2.5 1.2 1 0 .7-.7 1.1-1.4 1.1m0-5.5c.7 0 1.2.4 1.2 1s-.4 1.1-.7 1.1l-.5-.2c-.7-.2-1.1-.4-1.1-1 0-.5.4-.9 1.1-.9m1.8 2.7s.8-.7.8-1.8c0-1.3-1-2.2-2.6-2.2-1.7 0-2.6 1-2.6 2.2 0 1 1 1.6 1 1.6s-1.3.7-1.3 2c0 1.4 1.3 2.3 2.9 2.3 1.7 0 2.9-1 2.9-2.3 0-.8-.4-1.4-1.2-1.8M194.6 104.8l-.8.2v-.4l.1-1c0-.2.1-.3.3-.3h1.3c.2 0 .3 0 .3.2v.5h1.3v-1.2c0-.5-.2-.8-.8-.8h-3c-.5 0-.7.3-.7.8l-.3 3.3.5.3s.7-.4 1.5-.4c1 0 1.8.5 1.8 1.4 0 .7-.6 1.3-1.5 1.3-1.2 0-1.9-.8-1.9-.8l-.7 1s.9 1.2 2.6 1.2c2 0 3-1.3 3-2.7 0-1.4-1-2.6-3-2.6M115.6 11v29.5h5.1V9h-2.9c-1.2 0-2.2 1-2.2 2.1M130.7.5h-3c-1.2 0-2.2 1-2.2 2.2v38h27.6V36h-22.4V.5z" fill="#387B2B"/><g transform="translate(72 -.4)"><mask id="d" fill="#fff"><use xlink:href="#c"/></mask><path d="M35.8 20.7c0 9-6.4 15.8-15 15.8-8.5 0-15.2-7-15.2-15.8v-.1c0-9 6.5-15.8 15-15.8 8.6 0 15.2 7 15.2 15.9M20.8.4a19.7 19.7 0 0 0-20 20.3C.7 32.4 9.2 41 20.6 41a19.7 19.7 0 0 0 20-20.2v-.1C40.7 9 32.1.4 20.7.4" fill="#387B2B" mask="url(#d)"/></g><path d="M115.6 2.7v3.2h3c1.2 0 2.1-1 2.1-2.1V.5h-2.9c-1.2 0-2.2 1-2.2 2.2M49 76.8L57.7 57l8.1 19.8H49.1zM76.3 90l-16-39h-3.7c-.8 0-1.6.4-2 1.2L38.3 90.1h5.2l4-9.2h19.7l3.8 9.2h5.2zM119.6 85.5V55.6h10c9.4 0 15.2 5.8 15.2 15s-5.8 14.9-15.2 14.9h-10zM150 70.6c0-11.8-7.9-19.5-20.1-19.6h-15.2v39.1h15.2c12.2 0 20.1-7.6 20.1-19.5zM154.8 90.1h30.1v-4.6h-25.2V73.4h21.1v-4.6h-21.1V55.6h25.2V51h-30.1zM220.8 51v30.9l-26-30.9h-4.3v39.1h5V59.4l26 30.7h4.3V51zM37.1 81.2s.7-3.6-4-9.3c-2.5-3-3.7-4.5-7.8-4.2-4.1.2-6.6 0-6.6 0 .6 2.2 2.5 8.4 9.3 8.3 3.6 0 5.5 1.4 6.6 2.3-.9-2.8-5.2-5.2-9.7-7.1 0 0 10.4.6 12.2 10" fill="#387B2B"/><g transform="translate(0 49.6)"><mask id="f" fill="#fff"><use xlink:href="#e"/></mask><path d="M20.8 41a30 30 0 0 0 14.4-3.8 3 3 0 0 0 1.4-2.6c0-1.4-1.5-4.1-4.5-5v3.6c-2.8 1.9-7.1 3-11.1 3C11.5 36.3 5 30.3 5 21S11.4 5.6 20.8 5.6c3.6 0 6.6.9 9.4 2.7 1.6 1 3.6.7 4.9-.7l.8-.9-.4-.3C31.2 2.6 26.5.9 20.8.9 8.5.9 0 9.2 0 21s8.5 20 20.8 20" fill="#387B2B" mask="url(#f)"/></g><path d="M83.5 55.5H95c6 0 9.6 2.8 9.6 7.4 0 4.7-3.8 7.7-9.7 7.7H83.5v-15zM105.2 90h6.1L99.4 74.3c6.5-1.3 10.3-5.4 10.3-11.4v-.1c0-3-1.1-5.8-3.1-7.8-2.5-2.6-6.5-4-11.2-4H78.6v39.2h4.9V75H94L105 90z" fill="#387B2B"/></g></svg>