<svg width="41" height="14" xmlns="http://www.w3.org/2000/svg"><g fill-rule="nonzero" fill="none"><path fill="gray" d="M17.5 13.2h-3.3L16.3.5h3.3zM29.4.5a8 8 0 0 0-2.9-.5C23.3 0 21 1.7 21 4.2c0 1.9 1.6 3 2.8 3.5 1.3.6 1.7 1 1.7 1.6 0 .9-1 1.3-2 1.3-1.2 0-2-.2-3-.7l-.4-.2-.5 2.9c.8.3 2.2.6 3.7.6 3.4 0 5.6-1.7 5.7-4.3 0-1.5-.9-2.6-2.8-3.5-1.1-.6-1.8-1-1.8-1.6 0-.6.6-1.1 1.9-1.1 1 0 1.8.2 2.4.5l.3.1.4-2.8zM34 8.7l1.3-3.5.5-1.3L36 5l.7 3.7H34zm4-8.2h-2.5c-.8 0-1.3.2-1.7 1L29 13.2h3.5l.7-1.9h4.2l.4 2h3L38.1.4zM11.7.5L8.4 9.2 8 7.4c-.6-2-2.5-4.2-4.6-5.3l3 11.1H10L15.2.5h-3.5z"/><path d="M5.3 0H0L0 .3c4 1 6.7 3.5 7.8 6.6L6.8 1C6.4.3 6 0 5.2 0z" fill="#D2D2D2"/></g></svg>