<svg width="59" height="16" xmlns="http://www.w3.org/2000/svg"><g fill-rule="nonzero" fill="none"><path fill="gray" d="M9.9 0v2.3L15.2 0z"/><path fill="#D2D2D2" d="M.1 3v2.6h4.1L0 10v2.2h8.4V9.6H4.2l4.2-4.5V3zM9.9 3h3v9.1h-3zM15.2 15.2v-12h3.2v1.2c.4-.5.8-.8 1.2-1 .5-.3 1-.5 1.7-.5.5 0 1 .1 1.5.4A4 4 0 0 1 25 5.7c.3.7.4 1.3.4 2a6 6 0 0 1-.4 2 4 4 0 0 1-2.2 2.5c-.5.3-1 .4-1.5.4a3.4 3.4 0 0 1-2.9-1.3v3.9h-3.2zm3.2-7.4c0 .6.1 1.1.5 1.5.4.4.8.6 1.4.6.5 0 1-.2 1.3-.6.4-.4.6-.9.6-1.5s-.2-1.1-.6-1.5c-.3-.4-.8-.6-1.3-.6-.6 0-1 .2-1.4.6-.4.4-.5.9-.5 1.5z"/><path d="M27 12V0H32c1.6 0 2.8.4 3.7 1.1.9.8 1.3 1.8 1.3 3.1a4 4 0 0 1-.6 2.4 4 4 0 0 1-1.9 1.5c-.7.3-1.6.5-2.6.5h-1.7V12H27zm3.3-6H32c.6 0 1-.2 1.4-.5.3-.2.5-.6.5-1.1 0-.5-.2-1-.5-1.2-.3-.3-.8-.4-1.4-.4h-1.6V6zM37.9 9.4c0-1 .3-1.7 1-2.2.6-.5 1.5-.8 2.7-.8.8 0 1.5.1 2.2.4v-.2c0-1-.6-1.5-1.9-1.5-.8 0-1.7.2-2.5.5l-.7-2.3a10 10 0 0 1 3.8-.7c1.6 0 2.8.4 3.5 1.1.7.7 1 1.7 1 3V12h-3.2v-1c-.7.8-1.6 1.2-2.8 1.2-.9 0-1.6-.2-2.2-.7-.6-.5-.9-1.2-.9-2.1zm3.2-.2c0 .3 0 .5.3.7.2.2.5.3.8.3.5 0 .9-.2 1.2-.4.3-.3.4-.7.4-1.1v-.5L42.6 8c-.5 0-.9 0-1.1.3a1 1 0 0 0-.4.8zM48 2.7h3.4l1.9 5.6L55 2.7h3.4l-3.4 9a5.8 5.8 0 0 1-1.4 2.4c-.5.5-1.3.7-2.2.7-1 0-2-.3-3-.8l1-2.3c.6.4 1 .5 1.5.5.3 0 .6-.1.7-.4l-3.6-9z" fill="gray"/></g></svg>