<?xml version="1.0" encoding="utf-8"?>
<!-- Generator: Adobe Illustrator 26.3.1, SVG Export Plug-In . SVG Version: 6.00 Build 0)  -->
<svg version="1.1" xmlns="http://www.w3.org/2000/svg" xmlns:xlink="http://www.w3.org/1999/xlink" x="0px" y="0px"
	 viewBox="0 0 63.8 63.8" style="enable-background:new 0 0 63.8 63.8;" xml:space="preserve">
<style type="text/css">
	.st0{fill:#FFFFFF;}
	.st1{fill:none;stroke:#231F20;stroke-width:0.25;stroke-linecap:round;stroke-linejoin:round;stroke-miterlimit:10;}
	.st2{fill-rule:evenodd;clip-rule:evenodd;fill:none;stroke:#231F20;stroke-width:0.25;stroke-miterlimit:10;}
</style>
<g id="Layer_1">
	<g>
		<circle class="st0" cx="31.9" cy="31.9" r="22.3"/>
	</g>
</g>
<g id="Layer_2">
	<g>
		<path class="st1" d="M37.1,36.1c-4.6,0-8.4-3.8-8.4-8.4c0-1.4,0.4-2.8,1-3.9c-3.3,1.1-5.7,4.3-5.7,8c0,4.6,3.8,8.4,8.4,8.4
			c1.7,0,3.4-0.5,4.7-1.4c0.5-0.4,1-0.8,1.4-1.2c0.5-0.5,1-1.2,1.3-1.8c-0.4,0.1-0.9,0.3-1.3,0.3C38.1,36,37.6,36.1,37.1,36.1z"/>
		<g>
			<polyline class="st1" points="32.8,26.3 34.6,26.3 32.9,28.2 34.8,28.2 			"/>
		</g>
		<g>
			<polyline class="st1" points="35.6,29.5 37.5,29.5 35.7,31.3 37.7,31.3 			"/>
		</g>
		<g>
			<polyline class="st1" points="37.7,25.1 39.5,25.1 37.7,27 39.7,27 			"/>
		</g>
	</g>
</g>
<g id="Layer_3">
</g>
</svg>
