<?xml version="1.0" encoding="utf-8"?>
<!-- Generator: Adobe Illustrator 26.3.1, SVG Export Plug-In . SVG Version: 6.00 Build 0)  -->
<svg version="1.1" xmlns="http://www.w3.org/2000/svg" xmlns:xlink="http://www.w3.org/1999/xlink" x="0px" y="0px"
	 viewBox="0 0 63.8 63.8" style="enable-background:new 0 0 63.8 63.8;" xml:space="preserve">
<style type="text/css">
	.st0{fill:#FFFFFF;}
	.st1{fill:none;stroke:#231F20;stroke-width:0.25;stroke-linecap:round;stroke-linejoin:round;stroke-miterlimit:10;}
	.st2{fill-rule:evenodd;clip-rule:evenodd;fill:none;stroke:#231F20;stroke-width:0.25;stroke-miterlimit:10;}
</style>
<g id="Layer_1">
	<circle class="st0" cx="32.7" cy="31.9" r="22.3"/>
</g>
<g id="Layer_2">
</g>
<g id="Layer_3">
	<path class="st2" d="M35.3,26.6c0,0-0.9-3.5-2.7-3.3s-3.4,3.2-2.9,6.5c0.6,3.3,2.6,1.6,1.3-0.4s-3.5-4.1-4.7-3.2
		c-1.1,0.9,1.3,6.7,5.8,6.8c4.5,0.1,6.1-3.2,6.7-4.6c0.6-1.3,0.5-3-0.9-2.5c-1.4,0.5-2.8,1.8-4,4.2s-1.6,6.1-0.8,7.9
		c0.8,1.8,3.4-0.3,3.9-0.8c0.6-0.5,3.3-3.1,2.5-3.9c-1.8-1.9-5.6,6.2-6.5,6.8c-0.8,0.6-2.9,1.4-5.3-2s-2.5-5.6,0.2-4
		c5,3,5,8.1,4.8,8.9"/>
</g>
</svg>
