<?xml version="1.0" encoding="utf-8"?>
<!-- Generator: Adobe Illustrator 26.3.1, SVG Export Plug-In . SVG Version: 6.00 Build 0)  -->
<svg version="1.1" xmlns="http://www.w3.org/2000/svg" xmlns:xlink="http://www.w3.org/1999/xlink" x="0px" y="0px"
	 viewBox="0 0 63.8 63.8" style="enable-background:new 0 0 63.8 63.8;" xml:space="preserve">
<style type="text/css">
	.st0{fill:#FFFFFF;}
	.st1{fill:none;stroke:#231F20;stroke-width:0.25;stroke-linecap:round;stroke-linejoin:round;stroke-miterlimit:10;}
	.st2{fill-rule:evenodd;clip-rule:evenodd;fill:none;stroke:#231F20;stroke-width:0.25;stroke-miterlimit:10;}
</style>
<g id="Layer_1">
	<g>
		<circle class="st0" cx="31.9" cy="31.9" r="22.3"/>
	</g>
</g>
<g id="Layer_2">
	<g>
		<path class="st1" d="M39.6,32.3c-1.1,0.8-7.2,4.7-7.2,4.7c-1,0.6-2.4,0.9-3.4,0.4c-1-0.5-2.7-1.3-3.4-1.7"/>
		<circle class="st1" cx="28.9" cy="31.1" r="2.1"/>
		<path class="st1" d="M26,32.5l-1.8,1.1c-0.9,0.5-0.9,1.2-0.9,2.1v1.7c0,1.2,0.7,1.7,1.3,2.1c0.7,0.6,3.2,1.7,4.3,2
			c1.3,0.3,2.3,0.3,3.6-0.5l8.3-5.3c0.8-0.5,0.9-1.2,0.9-2.1v-2.1c0-1-0.3-1.4-1.3-2c-0.9-0.6-2.9-1.6-4.2-1.8
			c-1.2-0.2-2.7,0.2-3.8,0.9l-1.1,0.7"/>
		<circle class="st1" cx="23.8" cy="27.7" r="1.7"/>
		<circle class="st1" cx="29.8" cy="24.7" r="2.6"/>
	</g>
</g>
<g id="Layer_3">
</g>
</svg>
