<?xml version="1.0" encoding="utf-8"?>
<!-- Generator: Adobe Illustrator 26.3.1, SVG Export Plug-In . SVG Version: 6.00 Build 0)  -->
<svg version="1.1" xmlns="http://www.w3.org/2000/svg" xmlns:xlink="http://www.w3.org/1999/xlink" x="0px" y="0px"
	 viewBox="0 0 63.8 63.8" style="enable-background:new 0 0 63.8 63.8;" xml:space="preserve">
<style type="text/css">
	.st0{fill:#FFFFFF;}
	.st1{fill:none;stroke:#231F20;stroke-width:0.25;stroke-linecap:round;stroke-linejoin:round;stroke-miterlimit:10;}
	.st2{fill-rule:evenodd;clip-rule:evenodd;fill:none;stroke:#231F20;stroke-width:0.25;stroke-miterlimit:10;}
</style>
<g id="Layer_1">
	<g>
		<circle class="st0" cx="31.9" cy="31.9" r="22.3"/>
	</g>
</g>
<g id="Layer_2">
	<g>
		<path class="st1" d="M33.5,28c-0.7-1.5-1.6-2.2-1.6-2.2h0c0,0-0.9,0.7-1.6,2.2"/>
		<path class="st1" d="M29.7,31.8c0-0.1,0-0.3,0-0.4v0c0-1.5,0.3-2.6,0.7-3.5"/>
		<path class="st1" d="M29.7,27.4c-1.1-0.9-2-1.1-2-1.1l0,0c0,0-0.6,1-0.6,2.7"/>
		<path class="st1" d="M30.3,28c-0.4,0.9-0.7,2-0.7,3.5v0c0,0.1,0,0.3,0,0.4"/>
		<path class="st1" d="M27.2,29.9c-1.8-0.9-3.2-0.7-3.2-0.7l0,0c0,0-0.2,1.3,0.5,3"/>
		<path class="st1" d="M28.8,31c-0.6-0.5-1.1-0.8-1.6-1.1"/>
		<path class="st1" d="M31,36c-0.6-0.8-1.2-2.2-1.3-4.2"/>
		<path class="st1" d="M29.7,31.8c0.1,2,0.7,3.4,1.3,4.2"/>
		<path class="st1" d="M24.5,32.3c0.3,0.8,0.9,1.7,1.8,2.6l0,0c1.8,1.8,3.6,2.3,4.6,2.4"/>
		<path class="st1" d="M36.7,29c0-1.7-0.6-2.7-0.6-2.7l0,0c0,0-0.9,0.2-2,1.1"/>
		<path class="st1" d="M33.5,28c0.4,0.9,0.7,2,0.7,3.5v0c0,0.1,0,0.3,0,0.4"/>
		<path class="st1" d="M34.1,31.8c0-0.1,0-0.3,0-0.4v0c0-1.5-0.3-2.6-0.7-3.5"/>
		<path class="st1" d="M32.8,36c-0.4,0.6-0.8,0.9-0.9,1l-0.1,0c-0.1-0.1-0.5-0.4-0.9-1"/>
		<path class="st1" d="M39.3,32.3c0.7-1.7,0.5-3,0.5-3l0,0c0,0-1.4-0.2-3.2,0.7"/>
		<path class="st1" d="M34.1,31.8c-0.1,2-0.7,3.3-1.3,4.2"/>
		<path class="st1" d="M36.6,29.9c-0.5,0.2-1,0.6-1.6,1"/>
		<path class="st1" d="M32.8,36c0.6-0.8,1.2-2.2,1.3-4.2"/>
		<path class="st1" d="M32.9,37.3c1-0.1,2.8-0.6,4.6-2.4l0,0c0.9-0.9,1.4-1.8,1.8-2.6"/>
		<g>
			<path class="st1" d="M23.3,32.1c-1.5,0-2.4,0.5-2.4,0.5l0,0c0,0,0.5,2.8,4.1,4.5l0,0c1.9,0.9,3.5,1,4.5,0.8"/>
			<path class="st1" d="M30.9,37.3c-1-0.1-2.8-0.6-4.6-2.4l0,0c-0.9-0.9-1.4-1.8-1.8-2.6"/>
			<path class="st1" d="M39.3,32.3c-0.3,0.8-0.9,1.7-1.8,2.6l0,0c-1.8,1.8-3.6,2.3-4.6,2.4"/>
			<path class="st1" d="M34.2,37.9c1.1,0.2,2.7,0.1,4.7-0.8l0,0c3.5-1.7,4.1-4.5,4.1-4.5l0,0c0,0-1-0.5-2.6-0.4"/>
		</g>
	</g>
</g>
<g id="Layer_3">
</g>
</svg>
