<?xml version="1.0" encoding="utf-8"?>
<!-- Generator: Adobe Illustrator 26.0.3, SVG Export Plug-In . SVG Version: 6.00 Build 0)  -->
<svg version="1.1" id="Layer_1" xmlns="http://www.w3.org/2000/svg" xmlns:xlink="http://www.w3.org/1999/xlink" x="0px" y="0px"
	 viewBox="0 0 63.8 63.8" style="enable-background:new 0 0 63.8 63.8;" xml:space="preserve">
<style type="text/css">
	.st0{fill:#F1F1EE;}
	.st1{fill:#58595B;}
	.st2{fill:none;}
</style>
<g>
	<circle class="st0" cx="31.9" cy="31.9" r="22.3"/>
	<g>
		<g>
			<path d="M34.6,27.2c-0.2-4.2,5-6.9,8.4-4.4c3.5,2.4,2.7,8.1-1.3,9.4c-1.6,0.6-4.1,0.3-5.7,0.4c-5.6,0-11.7,0-17.3-0.1
				c5.5-0.1,11.7-0.1,17.3-0.1c1.6-0.1,4.2,0.3,5.7-0.3c4-1.3,4.7-6.8,1.2-9.1C39.4,20.5,34.7,23.1,34.6,27.2L34.6,27.2z"/>
		</g>
		<g>
			<path d="M36,39.3c0,1.6,1.2,3.1,2.7,3.5c3.5,0.9,6.1-3.4,3.6-6c-1.1-1.3-2.9-1.1-4.5-1.1c-6.4,0.1-12.9,0.1-19.3-0.1
				c6.4-0.2,12.8-0.1,19.3-0.1c1.6,0,3.4-0.1,4.5,1.2c1.9,1.8,1.1,5.2-1.3,6.1C38.8,43.9,35.8,41.8,36,39.3L36,39.3z"/>
		</g>
		<g>
			<path d="M24.8,24.5c-0.2-2.4,2.4-4.4,4.7-3.7c3.9,1.1,3.5,7-0.6,7.4c-3.4,0.1-6.8,0-10.2-0.1c2.3-0.1,4.6-0.1,6.8-0.1
				c2.1,0,4.8,0.5,6.1-1.7C34.3,20.9,25.5,18.4,24.8,24.5L24.8,24.5z"/>
		</g>
	</g>
</g>
</svg>
