<?xml version="1.0" encoding="utf-8"?>
<!-- Generator: Adobe Illustrator 26.0.3, SVG Export Plug-In . SVG Version: 6.00 Build 0)  -->
<svg version="1.1" id="Layer_1" xmlns="http://www.w3.org/2000/svg" xmlns:xlink="http://www.w3.org/1999/xlink" x="0px" y="0px"
	 viewBox="0 0 63.8 63.8" style="enable-background:new 0 0 63.8 63.8;" xml:space="preserve">
<style type="text/css">
	.st0{fill:#F1F1EE;}
	.st1{fill:#58595B;}
	.st2{fill:none;}
</style>
<g>
	<circle class="st0" cx="31.9" cy="31.9" r="22.3"/>
	<g>
		<g>
			<path d="M41.1,30.4c2.4,1.5-1.5,3-2.6,3.9c-2.5,1.4-4.7,3.3-7.4,4.5c-2,0.8-3.7-0.6-5.4-1.4c0,0-1.3-0.7-1.3-0.7
				c-0.4-0.1-1-0.8-0.6-1.1c-0.2,0.5,0.3,0.9,0.7,1c0,0,1.3,0.6,1.3,0.6c1.7,0.7,3.3,2.1,5.3,1.4c2.6-1,4.9-2.9,7.3-4.4
				c0,0,2.4-1.6,2.4-1.6C41.8,31.8,42.1,31.2,41.1,30.4L41.1,30.4z"/>
		</g>
		<g>
			<path d="M30.9,30.9c-0.1,3.6-5,3.4-5.2,0C25.8,27.4,30.9,27.4,30.9,30.9L30.9,30.9z M30.9,30.9c-0.1-3.2-4.8-3.2-5,0
				C25.8,34.1,30.8,34.1,30.9,30.9L30.9,30.9z"/>
		</g>
		<g>
			<path d="M26,31.9l-2.9,1.9c-0.5,0.3-1,0.6-1.2,1.1c-0.3,0.9-0.1,2.4-0.1,3.4c-0.2,1.9,1.7,2.8,3.1,3.6c1,0.5,2.1,1,3.2,1.3
				c1.1,0.3,2.3,0.5,3.4,0.1c1.1-0.3,2-1.1,3-1.7c1.4-0.9,4.3-2.8,5.8-3.8c0.8-0.6,2.1-1.3,2.8-1.9c0.9-1.3,0.4-3.4,0.5-5
				c-0.2-1.8-2.4-2.3-3.7-3.1c-3.9-2.1-6.2-0.8-9.5,1.3c0.9-0.5,2-1.4,2.9-1.8c3.3-1.7,6.9,0.2,9.7,2.1c1.4,1.1,0.7,3.4,0.8,5
				c0,0.6-0.1,1.2-0.5,1.7c-0.4,0.5-0.9,0.7-1.4,1c-2.1,1.3-5.2,3.3-7.3,4.6c0,0-1.5,0.9-1.5,0.9c-1.4,1.1-3.3,1.2-5,0.7
				c-1.1-0.3-2.2-0.8-3.2-1.3c-1.5-0.7-3.4-1.8-3.2-3.7c0.1-1-0.1-2.4,0.2-3.4c0.2-0.6,0.8-0.9,1.2-1.2C23.1,33.7,26,31.8,26,31.9
				L26,31.9z"/>
		</g>
		<g>
			<path d="M24.3,26.8c0,2.9-4,2.7-4.1,0C20.1,24,24.3,24,24.3,26.8L24.3,26.8z M24.3,26.8c-0.1-2.5-3.9-2.5-4,0
				C20.2,29.4,24.2,29.3,24.3,26.8L24.3,26.8z"/>
		</g>
		<g>
			<path d="M32.4,23.3c-0.1,4.2-6,4.1-6.2,0C26.3,19.1,32.4,19.1,32.4,23.3L32.4,23.3z M32.4,23.3c-0.2-3.8-5.8-3.8-6,0
				C26.4,27.2,32.3,27.1,32.4,23.3L32.4,23.3z"/>
		</g>
	</g>
</g>
</svg>
