<?xml version="1.0" encoding="utf-8"?>
<!-- Generator: Adobe Illustrator 26.0.3, SVG Export Plug-In . SVG Version: 6.00 Build 0)  -->
<svg version="1.1" id="Layer_1" xmlns="http://www.w3.org/2000/svg" xmlns:xlink="http://www.w3.org/1999/xlink" x="0px" y="0px"
	 viewBox="0 0 63.8 63.8" style="enable-background:new 0 0 63.8 63.8;" xml:space="preserve">
<style type="text/css">
	.st0{fill:#F1F1EE;}
	.st1{fill:#58595B;}
	.st2{fill:none;}
</style>
<g>
	<circle class="st0" cx="31.9" cy="31.9" r="22.3"/>
	<g>
		<path d="M41.5,29.5c0,0-7.2,0.1-7.2,0.1c0,0-0.1,0-0.1-0.1c0,0,0-7.2,0-7.2s0.1,0.1,0.1,0.1l-4.8,0c0,0,0.1-0.1,0.1-0.1l0,7.2
			c0,0,0,0.1-0.1,0.1c-2.3-0.1-5.1,0.1-7.1-0.1c0,0,0,4.8,0,4.8l-0.1-0.1l7.2,0c0.1,0,0.1,0,0.1,0.1c0,0,0,7.2,0,7.2
			c0,0-0.1-0.1-0.1-0.1l4.8,0c0,0-0.1,0.1-0.1,0.1c0-2.4,0-4.8,0-7.2c0-0.1,0-0.1,0.1-0.1c0,0,7.2,0.1,7.2,0.1
			C41.4,34.6,41.5,29.4,41.5,29.5L41.5,29.5z M41.5,29.5c0,0,0,4.9,0,4.9c0,0,0,0,0,0c0,0-7.2,0.1-7.2,0.1l0.1-0.1
			c0,2.4,0,4.8,0,7.2c0,0.1-0.1,0.1-0.1,0.1l-4.8,0c-0.1,0-0.1-0.1-0.1-0.1c0,0,0-7.2,0-7.2c0,0,0.1,0.1,0.1,0.1s-7.2,0-7.2,0
			c0,0-0.1,0-0.1-0.1c0,0,0-4.8,0-4.8c2.3-0.1,4.8,0,7.2-0.1c0,0-0.1,0.1-0.1,0.1l0-7.2c0-0.1,0-0.1,0.1-0.1c0,0,4.8,0,4.8,0
			c0.1,0,0.1,0,0.1,0.1c0,0,0,7.2,0,7.2l-0.1-0.1L41.5,29.5L41.5,29.5z"/>
	</g>
</g>
</svg>
