<?xml version="1.0" encoding="utf-8"?>
<!-- Generator: Adobe Illustrator 26.0.3, SVG Export Plug-In . SVG Version: 6.00 Build 0)  -->
<svg version="1.1" id="Layer_1" xmlns="http://www.w3.org/2000/svg" xmlns:xlink="http://www.w3.org/1999/xlink" x="0px" y="0px"
	 viewBox="0 0 63.8 63.8" style="enable-background:new 0 0 63.8 63.8;" xml:space="preserve">
<style type="text/css">
	.st0{fill:#F1F1EE;}
	.st1{fill:#58595B;}
	.st2{fill:none;}
</style>
<g>
	<circle class="st0" cx="31.9" cy="31.9" r="22.3"/>
	<g>
		<g>
			<g>
				<path d="M40.5,22.7c-11.7-9.5-26.9,3.8-19.3,16.6c0,0-0.1,0-0.1,0c0,0,1.8-0.7,1.9-0.7c0,0-1.8,0.7-1.8,0.8c0,0-0.1,0-0.1,0
					C12.8,26.7,29.3,12.7,40.5,22.7L40.5,22.7z"/>
			</g>
			<g>
				<path d="M42.7,39.4c2.7-4.4,2.6-9.8,0-14.2c0,0,0,0,0,0C45.6,29.2,45.6,35.5,42.7,39.4L42.7,39.4z"/>
			</g>
		</g>
		<g>
			<path d="M42.6,39.4c-0.4,0.1-0.6-0.3-0.9-0.3c-0.3,0-0.7-0.1-0.9-0.4c0.4,0,0.7,0.1,0.9,0.3C42,39.2,42.5,39,42.6,39.4L42.6,39.4
				z"/>
		</g>
		<g>
			<path d="M20.9,25.7c0.4-0.1,0.6,0.3,0.9,0.3c0.3,0.1,0.7,0.2,0.9,0.5c-0.4,0-0.7-0.1-0.9-0.3C21.5,26,21,26.1,20.9,25.7
				L20.9,25.7z"/>
		</g>
		<g>
			<path d="M31.9,19.6c0.2,0.3,0,0.6,0.1,1c0.1,0.3,0.1,0.7-0.1,1c-0.2-0.3-0.1-0.7-0.1-1C31.9,20.3,31.7,19.8,31.9,19.6L31.9,19.6z
				"/>
		</g>
		<g>
			<path d="M33.8,33.7c-2,1.8-4.9-1-3.2-3.1c0.6-0.7,2.5-1.7,3.2-2.2c2.6-1.6,6.2-3.9,8.7-5.5c0.1-0.1,0.2,0.1,0.1,0.2
				C40.2,26.1,36.6,30.8,33.8,33.7L33.8,33.7z M33.8,33.7c2.6-3,6.2-7.7,8.8-10.8c0,0,0.1,0.2,0.1,0.2c-3.8,2.4-8.4,5-11.9,7.7
				C29.2,32.7,31.9,35.4,33.8,33.7L33.8,33.7z"/>
		</g>
	</g>
</g>
</svg>
