<?xml version="1.0" encoding="utf-8"?>
<!-- Generator: Adobe Illustrator 26.0.3, SVG Export Plug-In . SVG Version: 6.00 Build 0)  -->
<svg version="1.1" id="Layer_1" xmlns="http://www.w3.org/2000/svg" xmlns:xlink="http://www.w3.org/1999/xlink" x="0px" y="0px"
	 viewBox="0 0 63.8 63.8" style="enable-background:new 0 0 63.8 63.8;" xml:space="preserve">
<style type="text/css">
	.st0{fill:#F1F1EE;}
	.st1{fill:#58595B;}
	.st2{fill:none;}
</style>
<g>
	<circle class="st0" cx="31.9" cy="31.9" r="22.3"/>
	<g>
		<path d="M39.6,38.1c-6.5,0.1-12.5-5.5-12.5-12.1c-0.1-2.1,0.4-4.3,1.5-6.2l0.1,0.1c-8.2,2.6-11,13.3-5.3,19.7
			c5.4,6.6,16.4,5.4,20.3-2.2C42.6,37.9,40.9,38,39.6,38.1L39.6,38.1z M39.6,38c1.4,0.1,2.9-0.4,4.1-0.6c-1.9,3.6-5.6,6.2-9.6,6.7
			c-14.9,1.2-19.4-19-5.4-24.3C24.7,28,30,37.8,39.6,38L39.6,38z"/>
	</g>
	<g>
		<g>
			<path d="M32.9,23.6c0.9-0.1,1.8-0.1,2.7-0.1c0,0,0.1,0,0.1,0.1c-0.8,0.9-1.5,1.9-2.2,2.8c0,0-0.1-0.2-0.1-0.2c1,0,1.9,0,2.9,0.1
				c-0.9,0.1-1.9,0.1-2.9,0.1c-0.1,0-0.1-0.1-0.1-0.1c0.7-1,1.6-1.8,2.3-2.8c0,0,0.1,0.1,0.1,0.1C34.7,23.8,33.7,23.8,32.9,23.6
				L32.9,23.6z"/>
		</g>
	</g>
	<g>
		<g>
			<path d="M37.7,28.3c0.9-0.1,1.8-0.1,2.7-0.1c0,0,0.1,0,0.1,0.1c-0.8,0.9-1.5,1.9-2.2,2.8c0,0-0.1-0.2-0.1-0.2c1,0,1.9,0,2.9,0.1
				c-0.9,0.1-1.9,0.1-2.9,0.1c-0.1,0-0.1-0.1-0.1-0.1c0.7-1,1.6-1.8,2.3-2.8c0,0,0.1,0.1,0.1,0.1C39.5,28.4,38.5,28.4,37.7,28.3
				L37.7,28.3z"/>
		</g>
	</g>
	<g>
		<g>
			<path d="M39.9,21.9c0.9-0.1,1.8-0.1,2.7-0.1c0,0,0.1,0,0.1,0.1c-0.8,0.9-1.5,1.9-2.2,2.8c0,0-0.1-0.2-0.1-0.2c1,0,1.9,0,2.9,0.1
				c-0.9,0.1-1.9,0.1-2.9,0.1c-0.1,0-0.1-0.1-0.1-0.1c0.7-1,1.6-1.8,2.3-2.8c0,0,0.1,0.1,0.1,0.1C41.7,22,40.7,22,39.9,21.9
				L39.9,21.9z"/>
		</g>
	</g>
</g>
</svg>
