<?xml version="1.0" encoding="utf-8"?>
<!-- Generator: Adobe Illustrator 26.0.3, SVG Export Plug-In . SVG Version: 6.00 Build 0)  -->
<svg version="1.1" id="Layer_1" xmlns="http://www.w3.org/2000/svg" xmlns:xlink="http://www.w3.org/1999/xlink" x="0px" y="0px"
	 viewBox="0 0 63.8 63.8" style="enable-background:new 0 0 63.8 63.8;" xml:space="preserve">
<style type="text/css">
	.st0{fill:#F1F1EE;}
	.st1{fill:#58595B;}
	.st2{fill:none;}
</style>
<circle class="st0" cx="31.9" cy="31.9" r="22.3"/>
<g>
	<g>
		<g>
			<path d="M30.6,26.3c-0.1,0.5-0.2,1.1-0.6,1.5c-1.4,0.6-3.4,0.5-4.3,1.9c-0.8,2-0.1,4.3-0.5,6.4c-0.3,1.4-1.2,2.7-1.9,3.9
				c-0.5,1-0.5,2.3-0.1,3.3c0.2,0.5,0.7,1,1,0.3c0.2-0.5,0.3-1.1,0.4-1.7c0.1-0.2,0.3,0.4,0.4,0.4c0.1,0.1,0.2,0.4,0.2,0.3
				c0.2-0.2,0.2-0.7,0.4-0.9c-0.1,0.3-0.1,1.4-0.6,0.9c-0.1-0.2-0.2-0.5-0.4-0.6c0,0,0.1,0,0.1,0c-0.1,0.7-0.1,1.6-0.6,2.2
				c-0.5,0.4-1-0.3-1.1-0.7c-0.5-1.1-0.4-2.4,0.1-3.5c0.7-1.3,1.6-2.4,2-3.8c0.5-2.1-0.4-4.4,0.4-6.5c1-1.5,3-1.3,4.4-1.9
				C30.3,27.4,30.4,26.7,30.6,26.3L30.6,26.3z"/>
			<path d="M25.5,41.7c0.1-0.8-0.1-1.5-0.2-2.2c0.4-0.6,0.9-1.1,1.2-1.7c1-1.8,1-4,1.3-6.1c0-0.1,0.1-0.1,0.1-0.1
				c0.7,0.9,0.9,2.2,0.9,3.3c-0.1,1.1-0.2,2.3-1,3.2c-0.5,0.2-1.1,0.4-1.7,0.5c0.5-0.2,1.2-0.5,1.6-0.6c1.1-1.8,1.1-4.4,0.1-6.2
				c0,0,0.2,0,0.2,0c-0.5,2.7-0.4,5.8-2.5,7.8c0,0,0-0.1,0-0.1C25.6,40.1,25.8,41.1,25.5,41.7L25.5,41.7z"/>
		</g>
	</g>
	<g>
		<path d="M33,26.2c0.2,0.4,0.7,1.2,0.8,1.5c1.4,0.4,3.4,0.4,4.5,1.4c0.3,0.3,0.4,0.7,0.4,1c-0.1,1,0,2,0.1,2.9
			c0.2,1.7,0.5,3.6-0.8,5C37.2,39,36,39.3,35,39.9c-0.8,0.4-1.6,0.8-2.4,1.2c0.7-0.5,1.5-0.9,2.3-1.3c0.7-0.4,1.7-1,2.3-1.3
			c0.8-0.6,1.2-1.7,1.4-2.4c0-2-0.2-3.9-0.1-5.9c-0.1-0.3-0.2-0.7-0.4-0.9c-0.2-0.2-0.6-0.4-0.8-0.6c-1.2-0.3-2.4-0.6-3.6-0.9
			C33.4,27.4,33.1,26.7,33,26.2L33,26.2z"/>
	</g>
	<g>
		<path d="M34.5,23.2c0.4,2.9-3,5.6-4.9,2.5c-0.4-0.8-0.6-1.7-0.5-2.6c0.1,0.8,0.3,1.7,0.7,2.4c0.9,1.7,3,1.9,3.9,0
			C34.2,24.9,34.4,23.9,34.5,23.2L34.5,23.2z"/>
	</g>
	<g>
		<path d="M32.4,18.6c-1.7-0.3-3.2,1.4-3.6,3c-0.1,0.5,0,1.1,0.4,1.6l-0.1,0c1.1-0.8,1.9-2.5,3.3-2.8c0.5,1.1,1,2.3,2.1,2.7
			c0,0-0.1,0-0.1,0C35.3,21.7,34.3,18.4,32.4,18.6L32.4,18.6z M32.4,18.6c2-0.4,3.3,3.3,2.2,4.7c0,0-0.1,0-0.1,0
			c-0.6-0.3-1.1-0.7-1.4-1.2c-0.3-0.5-0.5-1.1-0.8-1.7c0,0,0.1,0,0.1,0c-0.6,0.3-1.2,0.7-1.7,1.2c-0.5,0.4-1,1.3-1.6,1.5
			C27.5,21.3,30.2,18,32.4,18.6L32.4,18.6z"/>
	</g>
	<g>
		<path d="M32.6,41.1c-1.5,0.1-4.4,0.5-4.5-1.7c0-0.1,0-0.1,0.1-0.1c1.7-0.2,3.6,0.6,5.2-0.2c0.6-1,2.1-2.6,2.9-3
			c-0.1-1.5-0.1-3-0.8-4.3l0.2,0c-0.7,1.5-0.5,3.2-0.1,4.8c-0.4-0.6-0.5-1.6-0.6-2.4c0-0.8,0.1-1.7,0.4-2.5c0-0.1,0.1-0.1,0.2-0.1
			c0.8,1.3,0.8,3,0.8,4.5c-1.1,0.9-2.4,1.8-3.1,3.1c-1.6,0.8-3.5,0.2-5.2,0.4c0,0,0.1-0.1,0.1-0.1C28.5,41.4,31.3,40.9,32.6,41.1
			L32.6,41.1z"/>
	</g>
	<g>
		<path d="M37.3,38.5c1.6,0.3,3.2,1,4.7,1.6c1.4,0.4,1.7,2.2,0.7,3.1c-0.3,0.3-0.7,0.5-1.2,0.4c-0.8,0.5-2.6,0.9-3.8,1
			c-2.6,0.2-5.3-0.3-7.9,0.2c-1.3,0.3-2.6,0.8-4,0.3c0,0,0.1-0.2,0.1-0.2c0,0,0,0,0,0c0,0,0,0-0.1,0c-0.1,0.1,0,0.1,0,0.1
			c0,0,0,0,0,0c0,0,0,0,0,0s-0.1-0.1-0.1-0.1c-0.7-0.6-1.1-1.5-0.1-2c1.3-0.8,2.9-0.3,4.3-0.3c3.6,0.6,6.5-3,10.1-1.9
			c-3.5-0.9-6.5,2.7-10.1,2.2c-1.4,0-3-0.5-4.2,0.3c-0.9,0.5-0.4,1.3,0.2,1.8c0.1,0.1,0.2,0.1,0.1,0.2c-0.1,0-0.1,0-0.1,0
			c-0.1,0,0-0.1,0-0.2c0.6,0.3,1.3,0.2,1.9,0.1c3.2-1,6.6-0.3,9.9-0.6c1.3-0.1,2.6-0.5,3.8-1.1c0.8,0.2,1.4-0.7,1.5-1.4
			c0.2-0.8-0.4-1.5-1.1-1.8C40.5,39.6,38.8,39,37.3,38.5L37.3,38.5z"/>
	</g>
	<g>
		<path d="M23.5,39.2c-1.5,0.7-3.9,1.6-2.2,3.5c0.4,0.4,1,0.6,1.5,0.7c-1.2,0.2-2.7-1-2.2-2.3C21,40,22.3,39.2,23.5,39.2L23.5,39.2z
			"/>
	</g>
	<g>
		<path d="M33.7,42c-1.2-0.1-2.2-0.8-3.3-0.9c-1.1-0.2-2.3-0.2-3.4-0.4C29.2,40.5,31.7,41.2,33.7,42L33.7,42z"/>
	</g>
	<g>
		<path d="M29.1,28.1c0.6,2.6,5.1,2.4,5.9,0.1c0,0,0,0,0,0C34.9,30.8,28.9,30.8,29.1,28.1L29.1,28.1z"/>
	</g>
	<g>
		<path d="M27.9,28.4c0.6,0.6,0.9,1.9,1.1,2.7c0.3,0.9,0.2,2-0.2,2.9c0-0.9,0.2-1.9,0.1-2.9C28.8,30.1,28,29.2,27.9,28.4L27.9,28.4z
			"/>
	</g>
	<g>
		<path d="M36.1,28.4c-0.3,0.9-0.9,1.7-1,2.7c-0.1,0.9,0.1,2,0.1,2.9C34.8,33,34.7,32,35,31C35.2,30.2,35.5,28.9,36.1,28.4
			L36.1,28.4z"/>
	</g>
	<g>
		<path d="M27.9,38c0.5,0,0.7,0.5,1.1,0.6c0.4,0.2,0.8,0.4,1,0.7c-0.4-0.1-0.8-0.3-1.1-0.6C28.6,38.4,28,38.4,27.9,38L27.9,38z"/>
	</g>
	<g>
		<path d="M28.1,40.8c0,0.4-0.4,0.6-0.4,1c-0.1,0.4-0.2,0.7-0.5,1c-0.1-0.3,0.1-0.8,0.3-1C27.8,41.4,27.7,40.9,28.1,40.8L28.1,40.8z
			"/>
	</g>
	<g>
		<path d="M35.3,41.5c0.4,0.4,0.4,1,0.7,1.5c0.2,0.5,0.3,1.2,0.1,1.7c-0.1-0.6-0.1-1.1-0.2-1.6C35.8,42.5,35.3,42,35.3,41.5
			L35.3,41.5z"/>
	</g>
	<g>
		<path d="M34.6,23.5c0.2,0.2,0.5,0.4,0.7,0.7c0.7,0.8,0.4,2,0.2,2.9c0,0.1-0.1,0.1-0.2,0.1c-0.3-0.2-0.6-0.3-0.9-0.5
			c-0.3-0.3-0.4-0.6-0.5-0.9c0.2,0.3,0.4,0.6,0.6,0.8c0.2,0.2,0.6,0.2,0.9,0.5L35.3,27c0.2-0.6,0.5-1.2,0.3-1.9
			C35.5,24.5,34.8,24.1,34.6,23.5L34.6,23.5z"/>
	</g>
</g>
</svg>
