<?xml version="1.0" encoding="utf-8"?>
<!-- Generator: Adobe Illustrator 26.4.1, SVG Export Plug-In . SVG Version: 6.00 Build 0)  -->
<svg version="1.1" xmlns="http://www.w3.org/2000/svg" xmlns:xlink="http://www.w3.org/1999/xlink" x="0px" y="0px"
	 viewBox="0 0 20.5 29.4" style="enable-background:new 0 0 20.5 29.4;" xml:space="preserve">
<style type="text/css">
	.st0{fill:none;stroke:#231F20;stroke-width:0.25;stroke-linecap:round;stroke-linejoin:round;stroke-miterlimit:10;}
	.st1{fill-rule:evenodd;clip-rule:evenodd;fill:none;stroke:#231F20;stroke-width:0.25;stroke-miterlimit:10;}
</style>
<g id="Layer_1">
</g>
<g id="Layer_2">
</g>
<g id="Layer_3">
	<g>
		<path class="st1" d="M14.1,5c0,0-1.3-5.1-4-4.8S5,4.9,5.9,9.7S9.7,12,7.7,9.1s-5.2-6-6.9-4.7s2,9.9,8.5,10s9-4.8,9.8-6.7
			s0.8-4.4-1.4-3.7s-4.1,2.6-6,6.2s-2.4,9.1-1.2,11.7s5-0.5,5.8-1.1c0.8-0.7,4.9-4.6,3.7-5.8c-2.7-2.8-8.3,9.2-9.5,10
			s-4.2,2.1-7.8-2.9s-3.7-8.3,0.2-5.9c7.3,4.5,7.3,12,7.1,13.1"/>
	</g>
</g>
</svg>
