<svg xmlns="http://www.w3.org/2000/svg" width="33" height="47" viewBox="0 0 33 47">
  <path fill="#231F20" class="fill-color" fill-rule="evenodd" d="M8.69833333 16.5850583L8.69833333 16.5850583C8.76491667 16.4178917 8.74508333 16.229475 8.64591667 16.0821417 8.54533333 15.9333917 8.37675 15.8455583 8.19825 15.8455583L1.38833333 15.8455583 8.32433333 1.078225 15.606 1.078225 9.19983333 11.5728917C9.09641667 11.7386417 9.09358333 11.9483083 9.18991667 12.1183083 9.28341667 12.2883083 9.46333333 12.391725 9.65883333 12.391725L17.017 12.391725 16.86825 12.5673917 4.4625 27.092475 8.69833333 16.5850583zM3.14075 30.3026417L18.5965833 12.2033083C18.7325833 12.0446417 18.76375 11.8193917 18.6773333 11.6281417 18.5895 11.4368917 18.39825 11.3150583 18.1871667 11.3150583L10.6179167 11.3150583 17.0269167.818975C17.1275.653225 17.13175.444975 17.0368333.274975 16.9419167.104975 16.7605833.000141666667 16.5665.000141666667L7.98291667.000141666667C7.77466667.000141666667 7.58341667.121975 7.49416667.310391667L.051 16.152975C-.0269166667 16.3215583-.0141666667 16.5156417.085 16.6728917.18275 16.828725.35275 16.922225.53975 16.922225L7.40066667 16.922225 7.34116667 17.0681417 2.23125 29.7515583C2.13208333 29.9980583 2.22558333 30.275725 2.45225 30.4131417 2.67041667 30.5448917 2.97358333 30.496725 3.14075 30.3026417L3.14075 30.3026417zM31.0357667 28.4509167L18.6300167 42.976 22.86585 32.4685833 22.8644333 32.4685833C22.9324333 32.3028333 22.9126 32.1144167 22.8120167 31.96425 22.7114333 31.8169167 22.5442667 31.7276667 22.3657667 31.7276667L15.5544333 31.7276667 22.49185 16.96175 29.7721 16.96175 23.3645167 27.4564167C23.2639333 27.6221667 23.2611 27.8318333 23.3560167 28.0018333 23.4509333 28.1718333 23.6294333 28.27525 23.8249333 28.27525L31.1845167 28.27525 31.0357667 28.4509167zM32.8434333 27.5116667C32.7570167 27.3204167 32.56435 27.1985833 32.3546833 27.1985833L24.7854333 27.1985833 31.1930167 16.7025C31.2950167 16.53675 31.2992667 16.3285 31.2029333 16.1585 31.1094333 15.9885 30.9281 15.8836667 30.7326 15.8836667L22.1504333 15.8836667C21.9421833 15.8836667 21.7495167 16.0040833 21.6616833 16.1925L14.2185167 32.0365C14.1391833 32.2050833 14.1519333 32.39775 14.2511 32.5535833 14.3516833 32.71225 14.5202667 32.80575 14.7072667 32.80575L21.5681833 32.80575 21.5086833 32.9516667 16.39735 45.6350833C16.2996 45.8815833 16.3916833 46.15925 16.61835 46.2966667 16.8379333 46.4298333 17.1411 46.3830833 17.3082667 46.1861667L32.7655167 28.0868333C32.9001 27.9281667 32.9312667 27.7015 32.8434333 27.5116667L32.8434333 27.5116667z"/>
</svg>
