<?xml version="1.0" encoding="utf-8"?>
<!-- Generator: Adobe Illustrator 26.4.1, SVG Export Plug-In . SVG Version: 6.00 Build 0)  -->
<svg version="1.1" xmlns="http://www.w3.org/2000/svg" xmlns:xlink="http://www.w3.org/1999/xlink" x="0px" y="0px"
	 viewBox="0 0 29.4 29.4" style="enable-background:new 0 0 29.4 29.4;" xml:space="preserve">
<style type="text/css">
	.st0{fill:none;stroke:#231F20;stroke-width:0.25;stroke-linecap:round;stroke-linejoin:round;stroke-miterlimit:10;}
	.st1{fill-rule:evenodd;clip-rule:evenodd;fill:none;stroke:#231F20;stroke-width:0.25;stroke-miterlimit:10;}
</style>
<g id="Layer_1">
</g>
<g id="Layer_2">
	<g>
		<path class="st0" d="M26.1,15.3c-1.6,1.2-10.8,7-10.8,7c-1.5,0.9-3.5,1.4-5.1,0.6c-1.6-0.8-4-1.9-5.1-2.5"/>
		<circle class="st0" cx="10.3" cy="13.4" r="3.2"/>
		<path class="st0" d="M5.9,15.6l-2.6,1.7C2,18,2,19,2,20.4V23c0,1.8,1,2.5,1.9,3.2C5,27,8.7,28.7,10.4,29c1.9,0.4,3.4,0.5,5.3-0.7
			L28,20.4c1.1-0.8,1.3-1.8,1.3-3.2v-3.2c0-1.5-0.5-2.1-2-3c-1.4-0.8-4.3-2.3-6.3-2.7C19.3,8,17,8.6,15.3,9.6l-1.7,1.1"/>
		<circle class="st0" cx="2.7" cy="8.4" r="2.5"/>
		<circle class="st0" cx="11.5" cy="3.9" r="3.8"/>
	</g>
</g>
<g id="Layer_3">
</g>
</svg>
