<svg xmlns="http://www.w3.org/2000/svg" width="41" height="34" viewBox="0 0 41 34">
  <g fill="#231F20" class="fill-color" fill-rule="evenodd">
    <path d="M0,16.6348903 C0,17.0316645 0.322709677,17.3543742 0.71816129,17.3543742 L32.554,17.3543742 C36.8510645,17.3543742 40.3466452,13.857471 40.3466452,9.56040645 C40.3466452,5.26334194 36.8510645,1.76776129 32.554,1.76776129 C28.2556129,1.76776129 24.7600323,5.26334194 24.7600323,9.56040645 C24.7600323,9.95718065 25.0827419,10.2798903 25.4795161,10.2798903 C25.8749677,10.2798903 26.199,9.95718065 26.199,9.56040645 C26.199,6.05689032 29.0491613,3.20540645 32.554,3.20540645 C36.0588387,3.20540645 38.909,6.05689032 38.909,9.56040645 C38.909,13.0652452 36.0588387,15.916729 32.554,15.916729 L0.71816129,15.916729 C0.322709677,15.916729 0,16.2381161 0,16.6348903"/>
    <path d="M.718690323 10.6109323C.321916129 10.6109323.000529032258 10.9336419.000529032258 11.3304161.000529032258 11.7258677.321916129 12.0485774.718690323 12.0485774L15.7511419 12.0485774C19.0734645 12.0485774 21.7768194 9.34522258 21.7768194 6.0229 21.7768194 2.70322258 19.0734645-.000132258065 15.7511419-.000132258065 12.4288194-.000132258065 9.7267871 2.70322258 9.7267871 6.0229 9.7267871 6.41967419 10.0494968 6.74238387 10.446271 6.74238387 10.8430452 6.74238387 11.1644323 6.41967419 11.1644323 6.0229 11.1644323 3.49412581 13.2223677 1.43619032 15.7511419 1.43619032 18.2812387 1.43619032 20.3378516 3.49412581 20.3378516 6.0229 20.3378516 8.55299677 18.2812387 10.6109323 15.7511419 10.6109323L.718690323 10.6109323zM30.7849161 33.2717645C34.1072387 33.2717645 36.8105935 30.5684097 36.8105935 27.2460871 36.8105935 23.9250871 34.1072387 21.2230548 30.7849161 21.2230548L.718690323 21.2230548C.321916129 21.2230548.000529032258 21.5444419.000529032258 21.9412161.000529032258 22.3366677.321916129 22.6607.718690323 22.6607L30.7849161 22.6607C33.3136903 22.6607 35.3716258 24.7173129 35.3716258 27.2460871 35.3716258 29.7748613 33.3136903 31.8327968 30.7849161 31.8327968 28.2561419 31.8327968 26.1982065 29.7748613 26.1982065 27.2460871 26.1982065 26.8506355 25.8754968 26.5279258 25.4787226 26.5279258 25.0819484 26.5279258 24.7592387 26.8506355 24.7592387 27.2460871 24.7592387 30.5684097 27.4625935 33.2717645 30.7849161 33.2717645"/>
  </g>
</svg>
