<svg version="1.1" xmlns="http://www.w3.org/2000/svg" xmlns:xlink="http://www.w3.org/1999/xlink" x="0px" y="0px"
	 viewBox="0 0 40.2 22.3" style="enable-background:new 0 0 40.2 22.3;" xml:space="preserve">
<style type="text/css">
	.st0{fill:none;stroke:#231F20;stroke-width:0.75;stroke-linecap:round;stroke-linejoin:round;stroke-miterlimit:10;}
	.st1{fill-rule:evenodd;clip-rule:evenodd;fill:none;stroke:#231F20;stroke-width:0.75;stroke-miterlimit:10;}
</style>
<g id="Layer_1">
</g>
<g id="Layer_2">
	<g>
		<path class="st0" d="M23,4c-1.2-2.7-2.8-3.9-2.8-3.9h0c0,0-1.6,1.2-2.8,3.9"/>
		<path class="st0" d="M16.1,11c0-0.2,0-0.5,0-0.7v0c0-2.6,0.6-4.7,1.3-6.3"/>
		<path class="st0" d="M16.1,2.9c-2-1.6-3.6-2-3.6-2l0,0c0,0-1,1.8-1,4.9"/>
		<path class="st0" d="M17.3,4C16.6,5.6,16,7.7,16,10.3v0c0,0.2,0,0.5,0,0.7"/>
		<path class="st0" d="M11.6,7.6C8.3,6,5.8,6.3,5.8,6.3l0,0c0,0-0.4,2.3,1,5.4"/>
		<path class="st0" d="M14.5,9.5c-1-0.8-2-1.4-2.9-1.9"/>
		<path class="st0" d="M18.5,18.6c-1.1-1.5-2.3-4-2.4-7.6"/>
		<path class="st0" d="M16.1,11c0.1,3.6,1.3,6.1,2.4,7.6"/>
		<path class="st0" d="M6.8,11.8c0.6,1.4,1.6,3.1,3.2,4.7l0,0c3.2,3.3,6.5,4.2,8.4,4.4"/>
		<path class="st0" d="M28.8,5.8c0-3.1-1-4.9-1-4.9l0,0c0,0-1.6,0.4-3.5,2"/>
		<path class="st0" d="M23,4c0.7,1.6,1.3,3.6,1.3,6.3v0c0,0.2,0,0.5,0,0.7"/>
		<path class="st0" d="M24.2,11c0-0.2,0-0.5,0-0.7v0c0-2.6-0.6-4.7-1.3-6.3"/>
		<path class="st0" d="M21.8,18.6c-0.7,1.1-1.4,1.7-1.6,1.8l-0.2,0c-0.2-0.2-0.9-0.8-1.6-1.8"/>
		<path class="st0" d="M33.5,11.8c1.3-3.1,1-5.4,1-5.4l0,0c0,0-2.5-0.3-5.7,1.3"/>
		<path class="st0" d="M24.2,11c-0.1,3.6-1.3,6.1-2.4,7.6"/>
		<path class="st0" d="M28.7,7.6c-0.9,0.4-1.9,1-2.8,1.8"/>
		<path class="st0" d="M21.8,18.6c1-1.5,2.2-4,2.4-7.6"/>
		<path class="st0" d="M21.9,20.9c1.9-0.2,5.1-1.1,8.4-4.4l0,0c1.6-1.6,2.6-3.2,3.2-4.7"/>
		<g>
			<path class="st0" d="M4.5,11.6c-2.7,0-4.4,0.8-4.4,0.8l0,0c0,0,1,5,7.4,8.1l0,0c3.4,1.7,6.3,1.8,8.2,1.5"/>
			<path class="st0" d="M18.3,20.9c-1.9-0.2-5.1-1.1-8.4-4.4l0,0c-1.6-1.6-2.6-3.2-3.2-4.7"/>
			<path class="st0" d="M33.5,11.8c-0.6,1.4-1.6,3.1-3.2,4.7l0,0c-3.2,3.3-6.5,4.2-8.4,4.4"/>
			<path class="st0" d="M24.3,22c1.9,0.3,4.9,0.3,8.5-1.5l0,0c6.4-3.1,7.4-8.1,7.4-8.1l0,0c0,0-1.8-0.9-4.7-0.8"/>
		</g>
	</g>
</g>
<g id="Layer_3">
</g>
</svg>
