<svg xmlns="http://www.w3.org/2000/svg" xmlns:xlink="http://www.w3.org/1999/xlink" width="45" height="45" viewBox="0 0 45 45">
  <defs>
    <polygon id="icon-focus-a" points="0 .624 44.376 .624 44.376 45 0 45"/>
  </defs>
  <g fill="none" fill-rule="evenodd" transform="translate(0 -1)">
    <path fill="#231F20" class="fill-color" d="M26.9295429,17.9673429 C26.6055429,17.9673429 26.3406857,18.2322 26.3406857,18.5562 C26.3406857,18.8814857 26.6055429,19.1450571 26.9295429,19.1450571 C27.2535429,19.1450571 27.5184,18.8814857 27.5184,18.5562 C27.5184,18.2322 27.2535429,17.9673429 26.9295429,17.9673429"/>
    <g transform="translate(0 .662)">
      <mask id="icon-focus-b" fill="#fff">
        <use xlink:href="#icon-focus-a"/>
      </mask>
      <path fill="#231F20" class="fill-color" d="M42.5998286,43.2227571 C42.2128286,43.6097571 41.6985429,43.8231857 41.1534,43.8231857 C40.6082571,43.8231857 40.0939714,43.6097571 39.7069714,43.2227571 L31.6905429,35.2063286 L31.9271143,35.0019 C32.8026857,34.2497571 33.6268286,33.4256143 34.3789714,32.5500429 L34.5834,32.3147571 L42.5998286,40.3311857 C42.9868286,40.7181857 43.1989714,41.2311857 43.1989714,41.7776143 C43.1989714,42.3227571 42.9868286,42.8357571 42.5998286,43.2227571 L42.5998286,43.2227571 Z M30.8548286,34.3693286 L27.9478286,31.4636143 L28.1959714,31.2617571 C29.0882571,30.5327571 29.9098286,29.7111857 30.6388286,28.8189 L30.8406857,28.5707571 L33.7464,31.4777571 L33.5741143,31.6809 C32.8078286,32.5860429 31.9618286,33.4320429 31.0579714,34.1970429 L30.8548286,34.3693286 Z M26.7071143,30.9249 C23.9479714,32.9280429 20.6848286,33.9874714 17.2712571,33.9874714 C8.39597143,33.9874714 1.17668571,26.7681857 1.17668571,17.8941857 C1.17668571,9.0189 8.39597143,1.79961429 17.2712571,1.79961429 C26.1452571,1.79961429 33.3645429,9.0189 33.3645429,17.8941857 C33.3645429,21.3077571 32.3051143,24.5709 30.3006857,27.3313286 C29.2965429,28.7147571 28.0866857,29.9220429 26.7071143,30.9249 L26.7071143,30.9249 Z M43.4316857,39.4993286 L31.5452571,27.6103286 L31.6751143,27.4136143 C33.5509714,24.5889 34.5422571,21.2961857 34.5422571,17.8941857 C34.5422571,8.3709 26.7945429,0.623185714 17.2712571,0.623185714 C7.74797143,0.623185714 0.000257142857,8.3709 0.000257142857,17.8941857 C0.000257142857,27.4174714 7.74797143,35.1651857 17.2712571,35.1651857 C20.6732571,35.1651857 23.9646857,34.1739 26.7906857,32.2993286 L26.9874,32.1681857 L27.0619714,32.2427571 L38.8751143,44.0546143 C39.4845429,44.6640429 40.2932571,44.9996143 41.1534,44.9996143 C42.0135429,44.9996143 42.8235429,44.6640429 43.4316857,44.0546143 C44.0411143,43.4477571 44.3766857,42.6377571 44.3766857,41.7776143 C44.3766857,40.9161857 44.0411143,40.1061857 43.4316857,39.4993286 L43.4316857,39.4993286 Z" mask="url(#icon-focus-b)"/>
    </g>
    <path fill="#231F20" class="fill-color" d="M17.271,31.1383286 C10.3332857,31.1383286 4.689,25.4940429 4.689,18.5563286 C4.689,11.6186143 10.3332857,5.97432857 17.271,5.97432857 C24.2087143,5.97432857 29.853,11.6186143 29.853,18.5563286 C29.853,25.4940429 24.2087143,31.1383286 17.271,31.1383286 M17.271,4.7979 C9.684,4.7979 3.51128571,10.9693286 3.51128571,18.5563286 C3.51128571,26.1433286 9.684,32.3160429 17.271,32.3160429 C24.858,32.3160429 31.0307143,26.1433286 31.0307143,18.5563286 C31.0307143,10.9693286 24.858,4.7979 17.271,4.7979"/>
    <path fill="#231F20" class="fill-color" d="M17.271,9.48715714 C20.9982857,9.48715714 24.4028571,11.8284429 25.7412857,15.3140143 C25.7952857,15.4541571 25.911,15.5711571 26.0575714,15.6367286 C26.2002857,15.6997286 26.3635714,15.7074429 26.5011429,15.6521571 C26.6477143,15.5955857 26.7647143,15.4850143 26.829,15.3410143 C26.8932857,15.1970143 26.8971429,15.0375857 26.8405714,14.8910143 C26.1038571,12.9753 24.8232857,11.3385857 23.1377143,10.1583 C21.411,8.94844286 19.3834286,8.30944286 17.271,8.30944286 C16.947,8.30944286 16.6821429,8.57301429 16.6821429,8.8983 C16.6821429,9.2223 16.947,9.48715714 17.271,9.48715714"/>
  </g>
</svg>
