<svg xmlns="http://www.w3.org/2000/svg" xmlns:xlink="http://www.w3.org/1999/xlink" width="45" height="39" viewBox="0 0 45 39">
  <defs>
    <polygon id="icon-energy-a" points=".001 .058 24.643 .058 24.643 24.699 .001 24.699"/>
  </defs>
  <g fill="none" fill-rule="evenodd" transform="translate(0 -1)">
    <path fill="#231F20" class="fill-color" d="M19.8381389 30.9967167C19.5621389 30.9967167 19.3385278 31.2203278 19.3385278 31.4963278L19.3385278 33.5433278C19.3385278 33.8193278 19.5621389 34.0442167 19.8381389 34.0442167 20.1141389 34.0442167 20.3390278 33.8193278 20.3390278 33.5433278L20.3390278 31.4963278C20.3390278 31.2203278 20.1141389 30.9967167 19.8381389 30.9967167M19.8381389 36.5071333C19.5621389 36.5071333 19.3385278 36.7307444 19.3385278 37.0067444L19.3385278 39.0524667C19.3385278 39.3284667 19.5621389 39.5533556 19.8381389 39.5533556 20.1141389 39.5533556 20.3390278 39.3284667 20.3390278 39.0524667L20.3390278 37.0067444C20.3390278 36.7307444 20.1141389 36.5071333 19.8381389 36.5071333M23.6166556 34.7752333L21.5696556 34.7752333C21.2949333 34.7752333 21.0700444 34.9988444 21.0700444 35.2748444 21.0700444 35.5495667 21.2949333 35.7744556 21.5696556 35.7744556L23.6166556 35.7744556C23.8926556 35.7744556 24.1175444 35.5495667 24.1175444 35.2748444 24.1175444 34.9988444 23.8926556 34.7752333 23.6166556 34.7752333M18.1062389 34.7752333L16.0592389 34.7752333C15.7845167 34.7752333 15.5609056 34.9988444 15.5609056 35.2748444 15.5609056 35.5495667 15.7845167 35.7744556 16.0592389 35.7744556L18.1062389 35.7744556C18.3822389 35.7744556 18.6071278 35.5495667 18.6071278 35.2748444 18.6071278 34.9988444 18.3822389 34.7752333 18.1062389 34.7752333M33.3721056 1.44695556C33.0961056 1.44695556 32.8724944 1.67184444 32.8724944 1.94784444L32.8724944 3.99356667C32.8724944 4.26956667 33.0961056 4.49445556 33.3721056 4.49445556 33.6481056 4.49445556 33.8729944 4.26956667 33.8729944 3.99356667L33.8729944 1.94784444C33.8729944 1.67184444 33.6481056 1.44695556 33.3721056 1.44695556M33.3721056 6.95737222C33.0961056 6.95737222 32.8724944 7.18226111 32.8724944 7.45826111L32.8724944 9.50398333C32.8724944 9.77998333 33.0961056 10.0035944 33.3721056 10.0035944 33.6481056 10.0035944 33.8729944 9.77998333 33.8729944 9.50398333L33.8729944 7.45826111C33.8729944 7.18226111 33.6481056 6.95737222 33.3721056 6.95737222M37.1506222 5.22534444L35.1036222 5.22534444C34.8289 5.22534444 34.6040111 5.45023333 34.6040111 5.72623333 34.6040111 6.00095556 34.8289 6.22456667 35.1036222 6.22456667L37.1506222 6.22456667C37.4266222 6.22456667 37.6515111 6.00095556 37.6515111 5.72623333 37.6515111 5.45023333 37.4266222 5.22534444 37.1506222 5.22534444M29.5937167 5.22534444C29.3177167 5.22534444 29.0941056 5.45023333 29.0941056 5.72623333 29.0941056 6.00095556 29.3177167 6.22456667 29.5937167 6.22456667L31.6419944 6.22456667C31.9167167 6.22456667 32.1403278 6.00095556 32.1403278 5.72623333 32.1403278 5.45023333 31.9167167 5.22534444 31.6419944 5.22534444L29.5937167 5.22534444z"/>
    <g transform="translate(0 1.22)">
      <mask id="icon-energy-b" fill="#fff">
        <use xlink:href="#icon-energy-a"/>
      </mask>
      <path fill="#231F20" class="fill-color" d="M22.9814722,13.1852611 L19.9850833,13.7922056 C16.8289722,14.43365 14.3756389,16.8857056 13.73675,20.0418167 L13.1285278,23.0382056 C13.0288611,23.5250389 12.6468056,23.6988167 12.3209722,23.6988167 C11.9951389,23.6988167 11.6130833,23.5250389 11.5134167,23.0382056 L10.9064722,20.0418167 C10.2663056,16.8857056 7.81169444,14.4323722 4.65558333,13.7922056 L1.65919444,13.1852611 C1.17363889,13.0868722 0.999861111,12.6882056 0.999861111,12.3777056 C0.999861111,12.05315 1.17363889,11.6698167 1.65919444,11.57015 L4.65558333,10.9644833 C7.81169444,10.3243167 10.2663056,7.87098333 10.9064722,4.71359444 L11.5134167,1.71720556 C11.6130833,1.23165 12.0104722,1.05787222 12.3209722,1.05787222 C12.6314722,1.05787222 13.0288611,1.23037222 13.1285278,1.71720556 L13.73675,4.71359444 C14.3756389,7.87098333 16.8289722,10.3243167 19.9850833,10.9644833 L22.9814722,11.57015 C23.4683056,11.6685389 23.6420833,12.0518722 23.6420833,12.3777056 C23.6420833,12.7035389 23.4683056,13.0868722 22.9814722,13.1852611 M23.1795278,10.5900944 L20.1844167,9.98187222 C17.4218611,9.42348333 15.2764722,7.27681667 14.7155278,4.51426111 L14.1085833,1.51787222 C13.9309722,0.64515 13.2128611,0.0573722222 12.3209722,0.0573722222 C11.4290833,0.0573722222 10.7096944,0.64515 10.5333611,1.51787222 L9.92641667,4.51426111 C9.36547222,7.27681667 7.21880556,9.42348333 4.45752778,9.98187222 L1.46113889,10.5900944 C0.587138889,10.7677056 0.000638888889,11.4858167 0.000638888889,12.3777056 C0.000638888889,13.2695944 0.587138889,13.9889833 1.46113889,14.1665944 L4.45752778,14.7735389 C7.21880556,15.3332056 9.36547222,17.4785944 9.92641667,20.2398722 L10.5333611,23.2375389 C10.7096944,24.1115389 11.4290833,24.6993167 12.3209722,24.6993167 C13.2128611,24.6993167 13.9309722,24.1115389 14.1085833,23.2375389 L14.7155278,20.24115 C15.2764722,17.4785944 17.4218611,15.3332056 20.1844167,14.7735389 L23.1795278,14.1665944 C24.0548056,13.9889833 24.6425833,13.2695944 24.6425833,12.3777056 C24.6425833,11.4858167 24.0548056,10.7677056 23.1795278,10.5900944" mask="url(#icon-energy-b)"/>
    </g>
    <path fill="#231F20" class="fill-color" d="M43.5919,24.97225 L41.2906222,25.4373611 C38.8219556,25.9395278 36.9014556,27.8600278 36.4005667,30.3286944 L35.9341778,32.6286944 C35.8830667,32.8880833 35.6926778,33.0426944 35.4269,33.0426944 C35.1636778,33.0426944 34.9745667,32.8880833 34.9209,32.6299722 L34.4545111,30.3286944 C33.9549,27.8600278 32.0344,25.9395278 29.5631778,25.4373611 L27.2631778,24.97225 C27.0050667,24.9198611 26.8491778,24.73075 26.8491778,24.46625 C26.8491778,24.2004722 27.0050667,24.0126389 27.2631778,23.96025 L29.5631778,23.4938611 C32.0344,22.9916944 33.9549,21.0724722 34.4545111,18.6038056 L34.9209,16.3025278 C34.9745667,16.0431389 35.1636778,15.8885278 35.4269,15.8885278 C35.6888444,15.8885278 35.8830667,16.0469722 35.9341778,16.3025278 L36.4005667,18.6038056 C36.9014556,21.0724722 38.8219556,22.9916944 41.2906222,23.4938611 L43.5919,23.96025 C43.8512889,24.0126389 44.0059,24.2004722 44.0059,24.46625 C44.0059,24.73075 43.8512889,24.9198611 43.5919,24.97225 M43.7899556,22.9776389 L41.4886778,22.5125278 C39.4135667,22.0921389 37.8022889,20.4783056 37.3806222,18.4031944 L36.9129556,16.1031944 C36.7698444,15.3876389 36.1590667,14.88675 35.4269,14.88675 C34.6972889,14.88675 34.0865111,15.3876389 33.9408444,16.1031944 L33.4744556,18.4031944 C33.0527889,20.4783056 31.4402333,22.0921389 29.3664,22.5125278 L27.0651222,22.9776389 C26.3495667,23.1245833 25.8486778,23.7353611 25.8486778,24.46625 C25.8486778,25.1971389 26.3495667,25.8079167 27.0651222,25.9535833 L29.3664,26.4199722 C31.4402333,26.8403611 33.0527889,28.4529167 33.4744556,30.5280278 L33.9408444,32.8280278 C34.0865111,33.5448611 34.6972889,34.0444722 35.4269,34.0444722 C36.1590667,34.0444722 36.7698444,33.5448611 36.9129556,32.8280278 L37.3819,30.5280278 C37.8022889,28.4529167 39.4135667,26.8403611 41.4886778,26.4199722 L43.7899556,25.9535833 C44.5067889,25.8079167 45.0051222,25.1971389 45.0051222,24.46625 C45.0051222,23.7353611 44.5067889,23.1245833 43.7899556,22.9776389"/>
  </g>
</svg>
