<svg xmlns="http://www.w3.org/2000/svg" xmlns:xlink="http://www.w3.org/1999/xlink" width="41" height="39" viewBox="0 0 41 39">
  <defs>
    <polygon id="icon-sleep-a" points=".403 .102 6.855 .102 6.855 6.756 .403 6.756"/>
    <polygon id="icon-sleep-c" points="0 1.028 37.999 1.028 37.999 39.374 0 39.374"/>
  </defs>
  <g fill="none" fill-rule="evenodd" transform="translate(0 -1)">
    <path fill="#231F20" class="fill-color" d="M27.3795375 18.4063687L31.4167875 18.4063687C31.5900375 18.4221188 31.7475375 18.3735563 31.8761625 18.2751187 31.9522875 18.2055563 32.00085 18.0939938 31.9969125 17.9771812 32.00085 17.8472438 31.9496625 17.7304312 31.8604125 17.6477438 31.735725 17.5493063 31.5861 17.5046812 31.4181 17.5138688L28.1985375 17.5138688 31.54935 13.7588062C31.5847875 13.7089312 31.6176 13.6485562 31.641225 13.5868687 31.6687875 13.5173062 31.683225 13.4490562 31.6845375 13.3794937 31.7016 13.2167437 31.6267875 13.0697437 31.49685 12.9909937 31.299975 12.9030562 31.0650375 12.8636812 30.843225 12.8702437L27.3979125 12.8715562C27.2404125 12.8610562 27.0934125 12.9083062 26.9752875 13.0001812 26.889975 13.0723687 26.8401 13.1826187 26.8440375 13.2994313 26.8440375 13.5606187 26.9516625 13.5999937 26.99235 13.6157438 27.194475 13.6721812 27.414975 13.6971187 27.6341625 13.6839937L29.8627875 13.6839937 30.108225 13.6839937 29.971725 13.8887437C29.8811625 14.0239313 29.7577875 14.1761812 29.5976625 14.3612437L29.0241 15.0056812 27.409725 16.8615562C27.0921 17.2159313 26.8926 17.4469312 26.7994125 17.5663687 26.63535 17.7776813 26.65635 18.0756188 26.8466625 18.2606812 26.9910375 18.3669937 27.1826625 18.4234313 27.3795375 18.4063687M24.0720375 13.3371C23.9407875 13.234725 23.781975 13.1835375 23.6205375 13.1992875L19.2919125 13.2006 23.6389125 8.3246625C23.6691 8.2800375 23.703225 8.2170375 23.7281625 8.1487875 23.755725 8.0766 23.7701625 8.00835 23.7701625 7.937475 23.7846 7.7786625 23.7176625 7.64085 23.5969125 7.569975 23.3737875 7.470225 23.1086625 7.4190375 22.8501 7.4374125L18.5726625 7.4374125C18.3981 7.4269125 18.2406 7.4715375 18.117225 7.56735 18.0476625 7.6264125 18.00435 7.7301 18.0082875 7.8351 18.0082875 8.07135 18.0765375 8.094975 18.09885 8.1015375 18.3442875 8.1724125 18.6146625 8.20785 18.862725 8.1907875L21.6531 8.1907875 22.227975 8.1907875 21.8932875 8.65935C21.7751625 8.824725 21.6176625 9.024225 21.42735 9.2512875L20.7094125 10.0545375 18.6251625 12.3382875C18.2419125 12.767475 17.9899125 13.056225 17.8691625 13.2006 17.6946 13.4119125 17.7169125 13.722975 17.92035 13.9106625 18.0712875 14.022225 18.2891625 14.0826 18.4965375 14.0681625L23.587725 14.06685C23.7754125 14.0786625 23.9486625 14.032725 24.0851625 13.927725 24.154725 13.86735 24.1980375 13.764975 24.1954125 13.6586625 24.19935 13.528725 24.1560375 13.4171625 24.0720375 13.3371"/>
    <g transform="translate(34.125 6.848)">
      <mask id="icon-sleep-b" fill="#fff">
        <use xlink:href="#icon-sleep-a"/>
      </mask>
      <path fill="#231F20" class="fill-color" d="M0.567525,6.5895375 C0.730275,6.7102875 0.9429,6.7680375 1.1489625,6.7522875 L6.2309625,6.750975 C6.4383375,6.771975 6.6129,6.7312875 6.75465,6.6315375 C6.815025,6.577725 6.857025,6.472725 6.8557125,6.367725 C6.85965,6.2351625 6.815025,6.1249125 6.7284,6.04485 C6.6089625,5.95035 6.4488375,5.905725 6.2755875,5.90835 L1.9259625,5.9096625 L6.3189,0.9877875 C6.3464625,0.9457875 6.3805875,0.8801625 6.4068375,0.8145375 C6.4330875,0.7476 6.4462125,0.6780375 6.447525,0.6019125 C6.4619625,0.4431 6.395025,0.3079125 6.274275,0.2370375 C6.0472125,0.1346625 5.77815,0.0926625 5.528775,0.1031625 L1.2054,0.104475 C1.03215,0.093975 0.877275,0.1386 0.751275,0.2344125 C0.6804,0.293475 0.6384,0.39585 0.6423375,0.50085 C0.6423375,0.7384125 0.7105875,0.7620375 0.7329,0.7686 C0.9757125,0.83685 1.244775,0.8696625 1.496775,0.85785 L4.8594,0.85785 L4.5273375,1.3237875 C4.4065875,1.4931 4.2490875,1.6939125 4.0614,1.915725 L1.2789,5.0224125 C0.8943375,5.4529125 0.641025,5.74035 0.520275,5.8834125 C0.3483375,6.0934125 0.368025,6.4031625 0.567525,6.5895375" mask="url(#icon-sleep-b)"/>
    </g>
    <g transform="translate(0 .285)">
      <mask id="icon-sleep-d" fill="#fff">
        <use xlink:href="#icon-sleep-c"/>
      </mask>
      <path fill="#231F20" class="fill-color" d="M10.7811375,3.09290625 L11.4492,2.72146875 L11.205075,3.44596875 C10.5212625,5.47378125 10.1773875,7.58953125 10.1800125,9.73021875 C10.1800125,15.0445312 12.249825,20.0425312 16.008825,23.8002187 C19.767825,27.5605312 24.765825,29.6290313 30.08145,29.6290313 C31.9228875,29.6290313 33.7551375,29.3730937 35.5270125,28.8690938 L36.2607,28.6590937 L35.859075,29.3087813 C32.4163875,34.8750937 26.4537,38.2101563 19.909575,38.2311563 C9.567075,38.2298438 1.1552625,29.8140938 1.156575,19.4715938 C1.156575,12.6767812 4.8460125,6.40040625 10.7811375,3.09290625 M1.5516375,11.8092187 C-0.4984875,16.7179687 -0.5168625,22.1228437 1.497825,27.0302812 C3.5177625,31.9442812 7.3292625,35.7794062 12.23145,37.8269063 C17.13495,39.8744062 22.54245,39.8901562 27.45645,37.8715312 C32.105325,35.9618437 35.8302,32.3984062 37.9446375,27.8387812 C38.0443875,27.6248437 38.0037,27.3754687 37.8422625,27.2035312 C37.6795125,27.0368437 37.4327625,26.9830312 37.2122625,27.0735937 C27.6730125,31.0229062 16.6952625,26.4750937 12.7446375,16.9319062 C10.7417625,12.0900937 10.863825,6.59203125 13.079325,1.84603125 C13.14495,1.70559375 13.1541375,1.54940625 13.1016375,1.40634375 C13.05045,1.26196875 12.94545,1.14778125 12.806325,1.08215625 C12.7302,1.04540625 12.6475125,1.02703125 12.5622,1.02703125 C12.486075,1.02703125 12.40995,1.04278125 12.3417,1.07165625 C7.4342625,3.08765625 3.6017625,6.90046875 1.5516375,11.8092187" mask="url(#icon-sleep-d)"/>
    </g>
  </g>
</svg>
