<svg version="1.1" xmlns="http://www.w3.org/2000/svg" xmlns:xlink="http://www.w3.org/1999/xlink" x="0px" y="0px"
	 viewBox="0 0 28 40.1" style="enable-background:new 0 0 28 40.1;" xml:space="preserve">
<style type="text/css">
	.st0{fill:none;stroke:#231F20;stroke-width:0.75;stroke-linecap:round;stroke-linejoin:round;stroke-miterlimit:10;}
	.st1{fill-rule:evenodd;clip-rule:evenodd;fill:none;stroke:#231F20;stroke-width:0.75;stroke-miterlimit:10;}
</style>
<g id="Layer_1">
</g>
<g id="Layer_2">
</g>
<g id="Layer_3">
	<g>
		<path class="st1" d="M19.2,6.8c0,0-1.8-7-5.5-6.6S6.8,6.7,8,13.3s5.2,3.1,2.6-0.8S3.4,4.2,1.2,6s2.7,13.5,11.7,13.7
			c9,0.2,12.3-6.5,13.4-9.2c1.1-2.7,1-6-1.9-5.1s-5.6,3.6-8.2,8.5s-3.3,12.4-1.7,16c1.7,3.6,6.8-0.6,8-1.5c1.1-0.9,6.7-6.3,5.1-8
			c-3.7-3.8-11.4,12.6-13,13.7s-5.8,2.9-10.7-4s-5.1-11.3,0.3-8.1c10,6.1,10,16.4,9.7,18"/>
	</g>
</g>
</svg>
