<?xml version="1.0" encoding="utf-8"?>
<!-- Generator: Adobe Illustrator 26.4.1, SVG Export Plug-In . SVG Version: 6.00 Build 0)  -->
<svg version="1.1" xmlns="http://www.w3.org/2000/svg" xmlns:xlink="http://www.w3.org/1999/xlink" x="0px" y="0px"
	 viewBox="0 0 24.2 25" style="enable-background:new 0 0 24.2 25;" xml:space="preserve">
<style type="text/css">
	.st0{fill:none;stroke:#231F20;stroke-width:0.25;stroke-linecap:round;stroke-linejoin:round;stroke-miterlimit:10;}
	.st1{fill-rule:evenodd;clip-rule:evenodd;fill:none;stroke:#231F20;stroke-width:0.25;stroke-miterlimit:10;}
</style>
<g id="Layer_1">
</g>
<g id="Layer_2">
	<g>
		<path class="st0" d="M20,18.8c-7,0-12.7-5.7-12.7-12.7c0-2.1,0.5-4.2,1.5-5.9c-5,1.7-8.6,6.5-8.6,12c0,7,5.7,12.7,12.7,12.7
			c2.6,0,5.1-0.8,7.1-2.2c0.8-0.5,1.5-1.2,2.2-1.8c0.8-0.8,1.4-1.8,2-2.8c-0.6,0.2-1.3,0.4-2,0.5C21.4,18.7,20.7,18.8,20,18.8z"/>
		<g>
			<polyline class="st0" points="13.5,4.1 16.2,4.1 13.6,6.9 16.5,6.9 			"/>
		</g>
		<g>
			<polyline class="st0" points="17.8,8.8 20.5,8.8 17.9,11.6 20.8,11.6 			"/>
		</g>
		<g>
			<polyline class="st0" points="20.8,2.3 23.6,2.3 20.9,5.1 23.9,5.1 			"/>
		</g>
	</g>
</g>
<g id="Layer_3">
</g>
</svg>
