<svg xmlns="http://www.w3.org/2000/svg" xmlns:xlink="http://www.w3.org/1999/xlink" width="45" height="40" viewBox="0 0 45 40">
  <defs>
    <polygon id="icon-immunity-a" points="0 .034 44.361 .034 44.361 39.079 0 39.079"/>
  </defs>
  <g fill="none" fill-rule="evenodd" transform="translate(0 -1)">
    <path fill="#231F20" class="fill-color" d="M37.0142763,5.73264474 C36.7253289,5.73264474 36.4896711,5.96830263 36.4896711,6.25725 C36.4896711,6.54619737 36.7253289,6.78303947 37.0142763,6.78303947 C37.3032237,6.78303947 37.5388816,6.54619737 37.5388816,6.25725 C37.5388816,5.96830263 37.3032237,5.73264474 37.0142763,5.73264474"/>
    <g transform="translate(0 1.15)">
      <mask id="icon-immunity-b" fill="#fff">
        <use xlink:href="#icon-immunity-a"/>
      </mask>
      <path fill="#231F20" class="fill-color" d="M24.7928684,35.6102763 L24.3878684,35.9596184 C23.7365526,36.5209342 23.0781316,37.0881711 22.4137895,37.6625132 L22.4126053,37.6636974 L22.1805,37.8638289 L22.1426053,37.8306711 L20.0051053,35.9844868 C9.00142105,26.4894868 1.05063158,19.6281711 1.05063158,11.9071184 C1.05063158,5.73619737 5.31971053,1.08461842 10.9790526,1.08461842 C14.1065526,1.08461842 16.8527368,2.24514474 19.1418158,4.53422368 C20.8008947,6.19330263 21.6108947,7.87961842 21.6985263,8.06672368 C21.7932632,8.27751316 22.0076053,8.35211842 22.1793158,8.35330263 L22.1805,8.35330263 C22.3510263,8.35330263 22.5665526,8.27988158 22.6601053,8.07264474 C22.7465526,7.88553947 23.5553684,6.19922368 25.2203684,4.53422368 C27.5094474,2.24514474 30.2556316,1.08461842 33.3831316,1.08461842 C39.0424737,1.08461842 43.3115526,5.73619737 43.3115526,11.9071184 C43.3115526,19.66725 35.1393158,26.7038289 24.7928684,35.6102763 M33.3831316,0.0342236842 C29.9927368,0.0342236842 26.8960263,1.34988158 24.4281316,3.83909211 C23.7022105,4.57330263 23.0461579,5.38922368 22.4789211,6.26672368 L22.1805,6.72619737 L21.8820789,6.26672368 C21.3183947,5.39396053 20.6635263,4.57803947 19.9328684,3.83909211 C17.4661579,1.34988158 14.3694474,0.0342236842 10.9790526,0.0342236842 C4.7205,0.0342236842 -0.000947368421,5.13935526 -0.000947368421,11.9071184 C-0.000947368421,20.1101447 8.118,27.11475 19.3537895,36.8098816 L21.8370789,38.9556711 C22.0265526,39.1190921 22.3368158,39.1202763 22.5239211,38.9556711 L24.9752368,36.8383026 C36.2299737,27.1242237 44.3607632,20.1077763 44.3607632,11.9071184 C44.3607632,8.73817105 43.2819474,5.77882895 41.3232632,3.57619737 C39.2899737,1.29303947 36.4691842,0.0342236842 33.3831316,0.0342236842" mask="url(#icon-immunity-b)"/>
    </g>
    <path fill="#231F20" class="fill-color" d="M35.9849605 22.5139737C36.0962763 22.6039737 36.2312763 22.6395 36.3710132 22.6252895 36.51075 22.6087105 36.6362763 22.5400263 36.7227237 22.4310789 39.5316711 18.9151579 40.8414079 15.9368684 40.8414079 13.0580526 40.8414079 11.5185789 40.4731184 10.0039737 39.7779868 8.67884211L39.7708816 8.66581579C39.7069342 8.54857895 39.5991711 8.46213158 39.4689079 8.42186842 39.4179868 8.40528947 39.3646974 8.397 39.3125921 8.397 39.2273289 8.397 39.1444342 8.41831579 39.0686447 8.45739474 38.9454868 8.52252632 38.8543026 8.63147368 38.8128553 8.76647368 38.7714079 8.90028947 38.78325 9.04239474 38.8483816 9.16673684 39.4558816 10.3248947 39.7898289 11.7068684 39.7898289 13.0580526 39.7898289 15.6858158 38.5546974 18.4556842 35.9020658 21.7750263 35.81325 21.8851579 35.7741711 22.0225263 35.79075 22.1610789 35.8061447 22.3008158 35.8748289 22.4263421 35.9849605 22.5139737M30.2848816 23.5165263L24.8221184 23.5165263C24.6302763 23.5165263 24.4751447 23.6728421 24.4751447 23.8635L24.4751447 29.3262632 19.8875132 29.3262632 19.8875132 23.8635C19.8875132 23.6728421 19.7323816 23.5165263 19.5405395 23.5165263L14.0765921 23.5165263 14.0765921 18.9300789 19.5405395 18.9300789C19.7323816 18.9300789 19.8875132 18.7737632 19.8875132 18.5819211L19.8875132 13.1203421 24.4751447 13.1203421 24.4751447 18.5819211C24.4751447 18.7737632 24.6302763 18.9300789 24.8221184 18.9300789L30.2848816 18.9300789 30.2848816 23.5165263zM30.6318553 18.2337632L25.1690921 18.2337632 25.1690921 12.7721842C25.1690921 12.5803421 25.0139605 12.4240263 24.8221184 12.4240263L19.5405395 12.4240263C19.3486974 12.4240263 19.1935658 12.5803421 19.1935658 12.7721842L19.1935658 18.2337632 13.7308026 18.2337632C13.5377763 18.2337632 13.3838289 18.3900789 13.3838289 18.5819211L13.3838289 23.8635C13.3838289 24.0553421 13.5377763 24.2116579 13.7308026 24.2116579L19.1935658 24.2116579 19.1935658 29.6732368C19.1935658 29.8650789 19.3486974 30.0213947 19.5405395 30.0213947L24.8221184 30.0213947C25.0139605 30.0213947 25.1690921 29.8650789 25.1690921 29.6732368L25.1690921 24.2116579 30.6318553 24.2116579C30.8236974 24.2116579 30.9788289 24.0553421 30.9788289 23.8635L30.9788289 18.5819211C30.9788289 18.3900789 30.8236974 18.2337632 30.6318553 18.2337632L30.6318553 18.2337632z"/>
  </g>
</svg>
